<svg id="Layer_1" data-name="Layer 1" xmlns="http://www.w3.org/2000/svg" width="188.9" height="169.77" viewBox="0 0 188.9 169.77"><defs><style>.cls-1{font-size:21.57px;fill:#b7a27b;font-family:MyriadPro-Regular, Myriad Pro;}.cls-2{letter-spacing:0em;}.cls-3{letter-spacing:-0.01em;}.cls-4{letter-spacing:0.01em;}.cls-5{fill:#fff;stroke:#b7a27b;}.cls-5,.cls-6,.cls-8,.cls-9{stroke-miterlimit:10;}.cls-6,.cls-8,.cls-9{fill:none;stroke:#b8a37c;}.cls-7{fill:#b8a37c;}.cls-8{stroke-width:0.25px;}.cls-9{stroke-width:0.5px;}</style></defs><text class="cls-1" transform="translate(-1 164.38)"><tspan class="cls-2">E</tspan><tspan class="cls-3" x="10.68" y="0">Y</tspan><tspan x="22.19" y="0">ELASH E</tspan><tspan class="cls-4" x="96.06" y="0">X</tspan><tspan x="108.54" y="0">TENSION</tspan></text><circle class="cls-5" cx="94.31" cy="69.5" r="67"/><path class="cls-6" d="M126.31,45.23l-23.68-4.15-29,6.59A2.13,2.13,0,0,1,71.08,46L70.42,43a2.14,2.14,0,0,1,1.65-2.54l27.86-5.92a2.1,2.1,0,0,1,1.54.26h0Z"/><path class="cls-6" d="M76.75,60.83s9.17-16.6,31.89-.87"/><path class="cls-7" d="M80.66,68.6s22.71,1.8,33-6.09C113.64,62.51,108.18,76,80.66,68.6Z"/><path class="cls-8" d="M103.52,65.2s5.78,8,15.82,2.28"/><path class="cls-8" d="M103.52,64.76s5.78,8,15.82,2.28"/><path class="cls-8" d="M103.09,65.2s5.77,8,15.82,2.28"/><path class="cls-8" d="M102.65,65.2s5.77,8,15.82,2.28"/><path class="cls-8" d="M102.65,66.07s5.77,8,15.82,2.28"/><path class="cls-8" d="M102.65,65.64s5.77,8,15.82,2.28"/><path class="cls-8" d="M101.77,66.07s5.78,8,15.83,2.28"/><path class="cls-8" d="M102.21,66.07S108,74,118,68.35"/><path class="cls-8" d="M100.46,66.51s5.78,8,15.83,2.28"/><path class="cls-8" d="M100.46,67s5.78,8,15.83,2.28"/><path class="cls-8" d="M100,67s5.77,8,15.82,2.28"/><path class="cls-8" d="M99.59,67s5.77,8,15.82,2.28"/><path class="cls-8" d="M99.15,67s5.78,8,15.82,2.28"/><path class="cls-8" d="M98.72,67s5.77,8,15.82,2.28"/><path class="cls-8" d="M98.28,67s5.77,8,15.82,2.28"/><path class="cls-8" d="M100.9,66.51s5.77,8,15.82,2.28"/><path class="cls-8" d="M101.34,66.51s5.77,8,15.82,2.28"/><path class="cls-8" d="M101.77,66.51s5.78,8,15.83,2.28"/><path class="cls-8" d="M98.28,67.38s5.77,8,15.82,2.28"/><path class="cls-8" d="M97.84,67.38s5.78,8,15.82,2.28"/><path class="cls-8" d="M97.84,67.82s5.78,8,15.82,2.28"/><path class="cls-8" d="M97.41,67.82s5.77,8,15.82,2.28"/><path class="cls-8" d="M96.53,67.82s5.78,8,15.82,2.28"/><path class="cls-8" d="M96.1,67.82s5.77,8,15.82,2.28"/><path class="cls-8" d="M95.66,67.82s5.77,8,15.82,2.28"/><path class="cls-8" d="M95.22,67.82s5.77,8,15.82,2.28"/><path class="cls-8" d="M94.78,67.82s5.78,8,15.83,2.28"/><path class="cls-8" d="M94.35,67.82s5.77,8,15.82,2.28"/><path class="cls-8" d="M93.91,67.82s5.77,8,15.82,2.28"/><path class="cls-8" d="M93.47,67.82s5.78,8,15.83,2.28"/><path class="cls-8" d="M93,67.82s5.77,8,15.82,2.28"/><path class="cls-8" d="M92.6,67.82s5.77,8,15.82,2.28"/><path class="cls-8" d="M92.16,67.82s5.78,8,15.82,2.28"/><path class="cls-8" d="M91.73,67.82s5.77,8,15.82,2.28"/><path class="cls-8" d="M91.29,67.82s5.77,8,15.82,2.28"/><path class="cls-8" d="M90.85,67.82s5.78,8,15.82,2.28"/><path class="cls-8" d="M90.42,67.82s5.77,8,15.82,2.28"/><path class="cls-8" d="M90,67.82s5.77,8,15.82,2.28"/><path class="cls-8" d="M89.54,67.82s5.78,8,15.82,2.28"/><path class="cls-8" d="M89.1,67.82s5.78,8,15.83,2.28"/><path class="cls-8" d="M97,67.82s5.77,8,15.82,2.28"/><path class="cls-8" d="M78,76.47a24.22,24.22,0,0,0,2.42-2.92A16.57,16.57,0,0,0,82.77,69"/><path class="cls-8" d="M78.5,76.44a24.78,24.78,0,0,0,2.41-2.92A16.23,16.23,0,0,0,83.23,69"/><path class="cls-8" d="M81.28,76.29a24.22,24.22,0,0,0,2.42-2.92A16.57,16.57,0,0,0,86,68.86"/><path class="cls-8" d="M80.82,76.31a24.78,24.78,0,0,0,2.41-2.92,16.23,16.23,0,0,0,2.32-4.5"/><path class="cls-8" d="M80.36,76.34a24.78,24.78,0,0,0,2.41-2.92,16.29,16.29,0,0,0,2.32-4.51"/><path class="cls-8" d="M79.89,76.37a24.3,24.3,0,0,0,2.41-2.93,16.26,16.26,0,0,0,2.33-4.5"/><path class="cls-8" d="M79.43,76.39a24.78,24.78,0,0,0,2.41-2.92A16.37,16.37,0,0,0,84.16,69"/><path class="cls-8" d="M79,76.42a23.66,23.66,0,0,0,2.41-2.92A16.46,16.46,0,0,0,83.7,69"/><path class="cls-8" d="M83.3,75.25s4.07-4.17,3.57-6.89"/><path class="cls-8" d="M82.86,75.25s4.07-4.17,3.57-6.89"/><path class="cls-8" d="M82.43,75.25S86.5,71.08,86,68.36"/><path class="cls-8" d="M82,75.25s4.07-4.17,3.56-6.89"/><path class="cls-8" d="M81.55,75.25s4.07-4.17,3.57-6.89"/><path class="cls-8" d="M81.12,75.25s4.07-4.17,3.56-6.89"/><path class="cls-8" d="M81.12,75.25s4.07-4.17,3.56-6.89"/><path class="cls-8" d="M80.68,75.25s4.07-4.17,3.56-6.89"/><path class="cls-8" d="M80.24,75.25s4.07-4.17,3.57-6.89"/><path class="cls-8" d="M79.81,75.25s4.07-4.17,3.56-6.89"/><path class="cls-8" d="M79.37,75.25s4.07-4.17,3.56-6.89"/><path class="cls-8" d="M78.93,75.25S83,71.08,82.5,68.36"/><path class="cls-8" d="M78.5,75.25s4.07-4.17,3.56-6.89"/><path class="cls-8" d="M78.06,75.25s4.07-4.17,3.56-6.89"/><path class="cls-8" d="M78.06,75.25s4.07-4.17,3.56-6.89"/><path class="cls-8" d="M77.62,75.25s4.07-4.17,3.57-6.89"/><path class="cls-8" d="M84.61,74.25s4.07-4.17,3.57-6.89"/><path class="cls-8" d="M84.17,74.25s4.07-4.17,3.57-6.89"/><path class="cls-8" d="M83.74,75.25s4.07-4.17,3.56-6.89"/><path class="cls-8" d="M86.36,74.25s4.07-4.17,3.56-6.89"/><path class="cls-8" d="M85.92,74.25s4.07-4.17,3.57-6.89"/><path class="cls-8" d="M85.49,74.25s4.07-4.17,3.56-6.89"/><path class="cls-8" d="M85.05,74.25s4.07-4.17,3.56-6.89"/><path class="cls-9" d="M91.81,73a7.29,7.29,0,0,1,0,4,7.18,7.18,0,0,1-1.68,2.93"/><path class="cls-8" d="M81,68.85s-1.59,4.43-3.91,6.4"/><polygon class="cls-9" points="83.04 88.14 46.23 96.93 45.24 97.17 45.85 99.72 83.65 90.69 83.04 88.14"/><path class="cls-8" d="M78.65,89.69c.8-2.83,3.12-2,3.12-2,15.29-2.18,9.61-7.86,9.61-7.86,1.31,3.49-8.73,3.93-8.73,3.93s-5.29,1-4.61,3.37"/><path class="cls-6" d="M44.81,97Q63.38,91.73,82,86.52L83.81,86"/><path class="cls-9" d="M82.81,69c-7.71,2.83-12.53,9.66-12,16,.7,8.41,10.61,13.43,11.27,13.76l.63.29c11.26,5.21,22.24,3.3,27.23,2.06a30.78,30.78,0,0,0,21.58-21.58c.69-8.22-4.44-15.06-10.78-16.19s-11.51,4.09-11.93,4.54"/></svg>