<svg id="Layer_1" data-name="Layer 1" xmlns="http://www.w3.org/2000/svg" width="135" height="135" viewBox="0 0 135 135"><defs><style>.cls-1{fill:#fff;}.cls-1,.cls-2,.cls-3{stroke:#000;stroke-miterlimit:10;stroke-width:0.5px;}.cls-2{fill:none;}</style></defs><circle class="cls-1" cx="67.75" cy="67.69" r="67"/><path class="cls-2" d="M99.75,42.42,76.07,38.27l-29,6.59a2.13,2.13,0,0,1-2.54-1.65l-.66-3.07a2.15,2.15,0,0,1,1.65-2.54l27.86-5.92a2.09,2.09,0,0,1,1.54.25h0Z"/><path class="cls-2" d="M55.19,59s9.17-16.6,31.89-.87"/><path class="cls-3" d="M54.1,65.79s22.72,1.8,33-6.09C87.08,59.7,81.62,73.22,54.1,65.79Z"/><path class="cls-2" d="M82,64.39s5.78,8,15.83,2.28"/><path class="cls-2" d="M82,64s5.78,8,15.83,2.28"/><path class="cls-2" d="M81.53,64.39s5.77,8,15.82,2.28"/><path class="cls-2" d="M81.09,64.39s5.77,8,15.82,2.28"/><path class="cls-2" d="M81.09,65.26s5.77,8,15.82,2.28"/><path class="cls-2" d="M81.09,64.82s5.77,8,15.82,2.28"/><path class="cls-2" d="M80.22,65.26S86,73.22,96,67.54"/><path class="cls-2" d="M80.65,65.26s5.78,8,15.83,2.28"/><path class="cls-2" d="M78.91,65.7s5.77,8,15.82,2.28"/><path class="cls-2" d="M78.91,66.14s5.77,8,15.82,2.27"/><path class="cls-2" d="M78.47,66.14s5.77,8,15.82,2.27"/><path class="cls-2" d="M78,66.14s5.78,8,15.82,2.27"/><path class="cls-2" d="M77.6,66.14s5.77,8,15.82,2.27"/><path class="cls-2" d="M77.16,66.14s5.77,8,15.82,2.27"/><path class="cls-2" d="M76.72,66.14s5.78,8,15.82,2.27"/><path class="cls-2" d="M79.34,65.7s5.78,8,15.82,2.28"/><path class="cls-2" d="M79.78,65.7s5.77,8,15.82,2.28"/><path class="cls-2" d="M80.22,65.7S86,73.66,96,68"/><path class="cls-2" d="M76.72,66.57s5.78,8,15.82,2.28"/><path class="cls-2" d="M76.29,66.57s5.77,8,15.82,2.28"/><path class="cls-2" d="M76.29,67s5.77,8,15.82,2.28"/><path class="cls-2" d="M75.85,67s5.77,8,15.82,2.28"/><path class="cls-2" d="M75,67s5.78,8,15.83,2.28"/><path class="cls-2" d="M74.54,67s5.77,8,15.82,2.28"/><path class="cls-2" d="M74.1,67s5.77,8,15.82,2.28"/><path class="cls-2" d="M73.66,67s5.78,8,15.83,2.28"/><path class="cls-2" d="M73.23,67S79,75,89.05,69.29"/><path class="cls-2" d="M72.79,67s5.77,8,15.82,2.28"/><path class="cls-2" d="M72.35,67s5.78,8,15.82,2.28"/><path class="cls-2" d="M71.92,67s5.77,8,15.82,2.28"/><path class="cls-2" d="M71.48,67s5.77,8,15.82,2.28"/><path class="cls-2" d="M71,67s5.78,8,15.82,2.28"/><path class="cls-2" d="M70.61,67s5.77,8,15.82,2.28"/><path class="cls-2" d="M70.17,67S75.94,75,86,69.29"/><path class="cls-2" d="M69.73,67s5.78,8,15.82,2.28"/><path class="cls-2" d="M69.29,67s5.78,8,15.83,2.28"/><path class="cls-2" d="M68.86,67s5.77,8,15.82,2.28"/><path class="cls-2" d="M68.42,67s5.77,8,15.82,2.28"/><path class="cls-2" d="M68,67s5.78,8,15.83,2.28"/><path class="cls-2" d="M67.55,67s5.77,8,15.82,2.28"/><path class="cls-2" d="M75.41,67s5.77,8,15.82,2.28"/><path class="cls-2" d="M51.48,73.66a24.43,24.43,0,0,0,2.41-2.93,16.23,16.23,0,0,0,2.32-4.5"/><path class="cls-2" d="M51.94,73.63a23.66,23.66,0,0,0,2.41-2.92,16,16,0,0,0,2.32-4.51"/><path class="cls-2" d="M54.73,73.48a24.78,24.78,0,0,0,2.41-2.92,16.43,16.43,0,0,0,2.32-4.51"/><path class="cls-2" d="M54.26,73.5a23.66,23.66,0,0,0,2.41-2.92A16.26,16.26,0,0,0,59,66.08"/><path class="cls-2" d="M53.8,73.53a24.78,24.78,0,0,0,2.41-2.92,16.29,16.29,0,0,0,2.32-4.51"/><path class="cls-2" d="M53.33,73.55a23.66,23.66,0,0,0,2.41-2.92,16.26,16.26,0,0,0,2.33-4.5"/><path class="cls-2" d="M52.87,73.58a24.78,24.78,0,0,0,2.41-2.92,16.29,16.29,0,0,0,2.32-4.51"/><path class="cls-2" d="M52.41,73.61a25.47,25.47,0,0,0,2.41-2.93,16.23,16.23,0,0,0,2.32-4.5"/><path class="cls-2" d="M61.74,73.44s4.07-4.17,3.57-6.89"/><path class="cls-2" d="M61.31,73.44s4.07-4.17,3.56-6.89"/><path class="cls-2" d="M60.87,73.44s4.07-4.17,3.56-6.89"/><path class="cls-2" d="M60.43,73.44S64.5,69.27,64,66.55"/><path class="cls-2" d="M60,73.44s4.07-4.17,3.56-6.89"/><path class="cls-2" d="M59.56,73.44s4.07-4.17,3.56-6.89"/><path class="cls-2" d="M59.56,73.44s4.07-4.17,3.56-6.89"/><path class="cls-2" d="M59.12,73.44s4.07-4.17,3.57-6.89"/><path class="cls-2" d="M58.69,73.44s4.07-4.17,3.56-6.89"/><path class="cls-2" d="M58.25,73.44s4.07-4.17,3.56-6.89"/><path class="cls-2" d="M57.81,73.44s4.07-4.17,3.57-6.89"/><path class="cls-2" d="M57.37,73.44s4.07-4.17,3.57-6.89"/><path class="cls-2" d="M56.94,73.44S61,69.27,60.5,66.55"/><path class="cls-2" d="M56.5,73.44s4.07-4.17,3.57-6.89"/><path class="cls-2" d="M56.5,73.44s4.07-4.17,3.57-6.89"/><path class="cls-2" d="M56.06,73.44s4.07-4.17,3.57-6.89"/><path class="cls-2" d="M63.05,73.44s4.07-4.17,3.57-6.89"/><path class="cls-2" d="M62.62,73.44s4.07-4.17,3.56-6.89"/><path class="cls-2" d="M62.18,73.44s4.07-4.17,3.56-6.89"/><path class="cls-2" d="M64.8,73.44s4.07-4.17,3.57-6.89"/><path class="cls-2" d="M64.36,73.44s4.07-4.17,3.57-6.89"/><path class="cls-2" d="M63.93,73.44s4.07-4.17,3.56-6.89"/><path class="cls-2" d="M63.49,73.44s4.07-4.17,3.57-6.89"/><path class="cls-2" d="M70.25,72.19a7.2,7.2,0,0,1-1.67,6.93"/><path class="cls-2" d="M59.46,67s-1.59,4.43-3.91,6.4"/><polygon class="cls-2" points="56.48 86.32 19.67 95.12 18.68 95.36 19.29 97.91 57.09 88.87 56.48 86.32"/><path class="cls-2" d="M57.09,87.87c.81-2.82,3.12-2,3.12-2C75.51,83.7,69.83,78,69.83,78,71.14,81.52,61.09,82,61.09,82S55.8,83,56.48,85.32"/><path class="cls-2" d="M18.25,95.19Q36.82,89.91,55.41,84.7l1.84-.51"/><path class="cls-2" d="M56.25,66.19c-7.71,2.83-12.52,9.66-12,16C45,90.6,54.86,95.62,55.52,96l.63.29c11.27,5.21,22.24,3.3,27.23,2.06a31.33,31.33,0,0,0,14.9-9.25A30.88,30.88,0,0,0,105,76.72c.69-8.22-4.44-15.07-10.78-16.19s-11.51,4.09-11.93,4.53"/></svg>