<svg id="Layer_1" data-name="Layer 1" xmlns="http://www.w3.org/2000/svg" width="140" height="170" viewBox="0 0 140 170"><defs><style>.cls-1{fill:#fff;}.cls-1,.cls-2{stroke:#b7a27b;stroke-miterlimit:10;}.cls-2{fill:none;}.cls-3{font-size:21.57px;fill:#b7a27b;font-family:MyriadPro-Regular, Myriad Pro;}.cls-4{letter-spacing:-0.02em;}.cls-5{letter-spacing:0em;}</style></defs><circle class="cls-1" cx="70" cy="68.3" r="67"/><path class="cls-2" d="M89,60.3v50H51v-50a19,19,0,0,1,38,0Z"/><path class="cls-1" d="M58,71,57.9,38.36l24.79-.08.1,32.63a11.2,11.2,0,0,1-.07,1.3,12.39,12.39,0,0,1-24.65.08C58,71.86,58,71.43,58,71Z"/><polygon class="cls-2" points="67 35.3 61 54.3 80.02 54.3 73.34 35.3 67 35.3"/><line class="cls-2" x1="66.23" y1="54.3" x2="68.95" y2="35.3"/><line class="cls-2" x1="73.95" y1="54.3" x2="71.23" y2="35.3"/><polyline class="cls-2" points="66 17.77 66 35.3 74 35.3 73.95 17.77"/><text class="cls-3" transform="translate(7.37 163.81)">CND SHELL<tspan class="cls-4" x="101.3" y="0">A</tspan><tspan class="cls-5" x="114.17" y="0">C</tspan></text></svg>