<svg id="Layer_1" data-name="Layer 1" xmlns="http://www.w3.org/2000/svg" width="135" height="135" viewBox="0 0 135 135"><defs><style>.cls-1{fill:#fff;}.cls-1,.cls-2{stroke:#000;stroke-miterlimit:10;stroke-width:0.5px;}.cls-2{fill:none;}</style></defs><circle class="cls-1" cx="66.92" cy="67.19" r="67"/><path class="cls-1" d="M84.92,70.19v50h-38v-50a19,19,0,0,1,38,0Z"/><path class="cls-1" d="M53.91,79.87l-.09-30.35a2.28,2.28,0,0,1,2.27-2.28l20.24-.06a2.26,2.26,0,0,1,2.28,2.27l.1,30.34c0,.45,0,.88-.07,1.31A12.39,12.39,0,0,1,54,81.17,11.2,11.2,0,0,1,53.91,79.87Z"/><polyline class="cls-1" points="68.92 14.19 69.92 22.19 84.31 22.19 84.92 14.19"/><rect class="cls-1" x="73.92" y="22.19" width="7" height="19"/><path class="cls-1" d="M77.42,41.19s-20.5-3.48,0,30.26"/><path class="cls-1" d="M77.31,71.45c.37-.61.73-1.21,1.07-1.8,18.69-31.81-1.07-28.46-1.07-28.46"/><line class="cls-1" x1="81.88" y1="41.54" x2="69.33" y2="54.66"/><line class="cls-1" x1="84.12" y1="42.76" x2="70.2" y2="57.23"/><line class="cls-2" x1="85.37" y1="44.22" x2="70.96" y2="59.15"/><line class="cls-2" x1="72.86" y1="63.27" x2="86.42" y2="49.43"/><line class="cls-2" x1="71.68" y1="60.79" x2="86.19" y2="46.38"/><line class="cls-2" x1="73.92" y1="65.32" x2="85.83" y2="53.01"/><line class="cls-2" x1="74.92" y1="67.17" x2="84.4" y2="57.57"/><line class="cls-2" x1="75.89" y1="68.87" x2="81.88" y2="62.98"/><line class="cls-1" x1="72.87" y1="41.54" x2="85.42" y2="54.66"/><line class="cls-1" x1="70.63" y1="42.76" x2="84.55" y2="57.23"/><line class="cls-2" x1="69.38" y1="44.22" x2="83.79" y2="59.15"/><line class="cls-2" x1="81.89" y1="63.27" x2="68.33" y2="49.43"/><line class="cls-2" x1="83.07" y1="60.79" x2="68.56" y2="46.38"/><line class="cls-2" x1="80.83" y1="65.32" x2="68.92" y2="53.01"/><line class="cls-2" x1="79.82" y1="67.17" x2="70.35" y2="57.57"/><line class="cls-2" x1="78.86" y1="68.87" x2="72.87" y2="62.98"/></svg>