<svg id="Layer_1" data-name="Layer 1" xmlns="http://www.w3.org/2000/svg" width="188.9" height="169.77" viewBox="0 0 188.9 169.77"><defs><style>.cls-1{font-size:21.57px;font-family:MyriadPro-Regular, Myriad Pro;}.cls-2{letter-spacing:0em;}.cls-3{letter-spacing:-0.01em;}.cls-4{letter-spacing:0.01em;}.cls-5{fill:#fff;}.cls-5,.cls-6,.cls-7{stroke:#000;stroke-miterlimit:10;stroke-width:0.25px;}.cls-6{fill:none;}</style></defs><text class="cls-1" transform="translate(0 165.38)"><tspan class="cls-2">E</tspan><tspan class="cls-3" x="10.68" y="0">Y</tspan><tspan x="22.19" y="0">ELASH E</tspan><tspan class="cls-4" x="96.06" y="0">X</tspan><tspan x="108.54" y="0">TENSION</tspan></text><circle class="cls-5" cx="93.81" cy="70" r="67"/><path class="cls-6" d="M125.81,45.73l-23.68-4.15-29,6.59a2.13,2.13,0,0,1-2.53-1.65l-.66-3.07a2.14,2.14,0,0,1,1.65-2.54L99.43,35a2.1,2.1,0,0,1,1.54.26h0Z"/><path class="cls-6" d="M81.25,62.33s9.17-16.6,31.89-.87"/><path class="cls-7" d="M80.16,69.1s22.71,1.8,33-6.09C113.14,63,107.68,76.53,80.16,69.1Z"/><path class="cls-6" d="M108,67.7s5.78,8,15.82,2.28"/><path class="cls-6" d="M108,67.26s5.78,8,15.82,2.28"/><path class="cls-6" d="M107.59,67.7s5.77,8,15.82,2.28"/><path class="cls-6" d="M107.15,67.7s5.77,8,15.82,2.28"/><path class="cls-6" d="M107.15,68.57s5.77,8,15.82,2.28"/><path class="cls-6" d="M107.15,68.14s5.77,8,15.82,2.28"/><path class="cls-6" d="M106.27,68.57s5.78,8,15.83,2.28"/><path class="cls-6" d="M106.71,68.57s5.77,8,15.82,2.28"/><path class="cls-6" d="M105,69s5.78,8,15.83,2.28"/><path class="cls-6" d="M105,69.45s5.78,8,15.83,2.28"/><path class="cls-6" d="M104.53,69.45s5.77,8,15.82,2.28"/><path class="cls-6" d="M104.09,69.45s5.77,8,15.82,2.28"/><path class="cls-6" d="M103.65,69.45s5.78,8,15.82,2.28"/><path class="cls-6" d="M103.22,69.45s5.77,8,15.82,2.28"/><path class="cls-6" d="M102.78,69.45s5.77,8,15.82,2.28"/><path class="cls-6" d="M105.4,69s5.77,8,15.82,2.28"/><path class="cls-6" d="M105.84,69s5.77,8,15.82,2.28"/><path class="cls-6" d="M106.27,69s5.78,8,15.83,2.28"/><path class="cls-6" d="M102.78,69.88s5.77,8,15.82,2.28"/><path class="cls-6" d="M102.34,69.88s5.78,8,15.82,2.28"/><path class="cls-6" d="M102.34,70.32s5.78,8,15.82,2.28"/><path class="cls-6" d="M101.91,70.32s5.77,8,15.82,2.28"/><path class="cls-6" d="M101,70.32s5.78,8,15.82,2.28"/><path class="cls-6" d="M100.6,70.32s5.77,8,15.82,2.28"/><path class="cls-6" d="M100.16,70.32s5.77,8,15.82,2.28"/><path class="cls-6" d="M99.72,70.32s5.77,8,15.82,2.28"/><path class="cls-6" d="M99.28,70.32s5.78,8,15.83,2.28"/><path class="cls-6" d="M98.85,70.32s5.77,8,15.82,2.28"/><path class="cls-6" d="M98.41,70.32s5.77,8,15.82,2.28"/><path class="cls-6" d="M98,70.32s5.78,8,15.83,2.28"/><path class="cls-6" d="M97.54,70.32s5.77,8,15.82,2.28"/><path class="cls-6" d="M97.1,70.32s5.77,8,15.82,2.28"/><path class="cls-6" d="M96.66,70.32s5.78,8,15.82,2.28"/><path class="cls-6" d="M96.23,70.32s5.77,8,15.82,2.28"/><path class="cls-6" d="M95.79,70.32s5.77,8,15.82,2.28"/><path class="cls-6" d="M95.35,70.32s5.78,8,15.82,2.28"/><path class="cls-6" d="M94.92,70.32s5.77,8,15.82,2.28"/><path class="cls-6" d="M94.48,70.32s5.77,8,15.82,2.28"/><path class="cls-6" d="M94,70.32s5.78,8,15.82,2.28"/><path class="cls-6" d="M93.6,70.32s5.78,8,15.83,2.28"/><path class="cls-6" d="M101.47,70.32s5.77,8,15.82,2.28"/><path class="cls-6" d="M77.53,77A24.22,24.22,0,0,0,80,74.05a16.57,16.57,0,0,0,2.32-4.51"/><path class="cls-6" d="M78,76.94A24.78,24.78,0,0,0,80.41,74a16.23,16.23,0,0,0,2.32-4.5"/><path class="cls-6" d="M80.78,76.79a24.22,24.22,0,0,0,2.42-2.92,16.57,16.57,0,0,0,2.32-4.51"/><path class="cls-6" d="M80.32,76.81a24.78,24.78,0,0,0,2.41-2.92,16.23,16.23,0,0,0,2.32-4.5"/><path class="cls-6" d="M79.86,76.84a24.78,24.78,0,0,0,2.41-2.92,16.29,16.29,0,0,0,2.32-4.51"/><path class="cls-6" d="M79.39,76.87a24.3,24.3,0,0,0,2.41-2.93,16.26,16.26,0,0,0,2.33-4.5"/><path class="cls-6" d="M78.93,76.89A24.78,24.78,0,0,0,81.34,74a16.37,16.37,0,0,0,2.32-4.5"/><path class="cls-6" d="M78.46,76.92A23.66,23.66,0,0,0,80.87,74a16.46,16.46,0,0,0,2.33-4.51"/><path class="cls-6" d="M87.8,76.75s4.07-4.17,3.57-6.89"/><path class="cls-6" d="M87.36,76.75s4.07-4.17,3.57-6.89"/><path class="cls-6" d="M86.93,76.75s4.07-4.17,3.56-6.89"/><path class="cls-6" d="M86.49,76.75s4.07-4.17,3.56-6.89"/><path class="cls-6" d="M86.05,76.75s4.07-4.17,3.57-6.89"/><path class="cls-6" d="M85.62,76.75s4.07-4.17,3.56-6.89"/><path class="cls-6" d="M85.62,76.75s4.07-4.17,3.56-6.89"/><path class="cls-6" d="M85.18,76.75s4.07-4.17,3.56-6.89"/><path class="cls-6" d="M84.74,76.75s4.07-4.17,3.57-6.89"/><path class="cls-6" d="M84.31,76.75s4.07-4.17,3.56-6.89"/><path class="cls-6" d="M83.87,76.75s4.07-4.17,3.56-6.89"/><path class="cls-6" d="M83.43,76.75S87.5,72.58,87,69.86"/><path class="cls-6" d="M83,76.75s4.07-4.17,3.56-6.89"/><path class="cls-6" d="M82.56,76.75s4.07-4.17,3.56-6.89"/><path class="cls-6" d="M82.56,76.75s4.07-4.17,3.56-6.89"/><path class="cls-6" d="M82.12,76.75s4.07-4.17,3.57-6.89"/><path class="cls-6" d="M89.11,76.75s4.07-4.17,3.57-6.89"/><path class="cls-6" d="M88.67,76.75s4.07-4.17,3.57-6.89"/><path class="cls-6" d="M88.24,76.75s4.07-4.17,3.56-6.89"/><path class="cls-6" d="M90.86,76.75s4.07-4.17,3.56-6.89"/><path class="cls-6" d="M90.42,76.75s4.07-4.17,3.57-6.89"/><path class="cls-6" d="M90,76.75s4.07-4.17,3.56-6.89"/><path class="cls-6" d="M89.55,76.75s4.07-4.17,3.56-6.89"/><path class="cls-6" d="M96.31,75.5a7.29,7.29,0,0,1,0,4,7.18,7.18,0,0,1-1.68,2.93"/><path class="cls-6" d="M85.52,70.35s-1.59,4.43-3.91,6.4"/><path class="cls-6" d="M83.15,91.19c.8-2.83,3.12-2,3.12-2,15.29-2.18,9.61-7.86,9.61-7.86,1.31,3.49-8.73,3.93-8.73,3.93s-5.29,1-4.61,3.37"/><path class="cls-6" d="M82.31,69.5c-7.71,2.83-12.53,9.66-12,16,.7,8.41,10.61,13.43,11.27,13.76l.63.29c11.26,5.21,22.24,3.3,27.23,2.06A30.78,30.78,0,0,0,131,80c.69-8.22-4.44-15.06-10.78-16.19s-11.51,4.09-11.93,4.54"/><polygon class="cls-5" points="82.54 88.64 45.73 97.43 44.74 97.67 45.35 100.22 83.15 91.19 82.54 88.64"/><path class="cls-5" d="M44.31,97.5Q62.88,92.23,81.47,87l1.84-.52"/></svg>