<svg id="Layer_1" data-name="Layer 1" xmlns="http://www.w3.org/2000/svg" width="140" height="170" viewBox="0 0 140 170"><defs><style>.cls-1{fill:#fff;stroke:#000;stroke-miterlimit:10;stroke-width:0.5px;}.cls-2{font-size:21.57px;font-family:MyriadPro-Regular, Myriad Pro;}.cls-3{letter-spacing:-0.02em;}.cls-4{letter-spacing:0em;}</style></defs><circle class="cls-1" cx="70" cy="68.3" r="67"/><path class="cls-1" d="M89,60.3v50H51v-50a19,19,0,0,1,38,0Z"/><path class="cls-1" d="M58,71,57.9,38.36l24.79-.08.1,32.63a11.2,11.2,0,0,1-.07,1.3,12.39,12.39,0,0,1-24.65.08C58,71.86,58,71.43,58,71Z"/><polygon class="cls-1" points="67 37.3 61 56.3 80.02 56.3 73.34 37.3 67 37.3"/><line class="cls-1" x1="66.23" y1="56.3" x2="68.95" y2="37.3"/><line class="cls-1" x1="73.95" y1="56.3" x2="71.23" y2="37.3"/><polyline class="cls-1" points="66 19.77 66 37.3 74 37.3 73.95 19.77"/><text class="cls-2" transform="translate(6.37 163.81)">CND SHELL<tspan class="cls-3" x="101.3" y="0">A</tspan><tspan class="cls-4" x="114.17" y="0">C</tspan></text></svg>