<svg id="Layer_1" data-name="Layer 1" xmlns="http://www.w3.org/2000/svg" width="135" height="135" viewBox="0 0 135 135"><defs><style>.cls-1{fill:#fff;stroke:#b7a27b;}.cls-1,.cls-2,.cls-4,.cls-5{stroke-miterlimit:10;}.cls-2,.cls-4,.cls-5{fill:none;stroke:#b8a37c;}.cls-3{fill:#b8a37c;}.cls-4{stroke-width:0.25px;}.cls-5{stroke-width:0.5px;}</style></defs><circle class="cls-1" cx="67.25" cy="67.19" r="67"/><path class="cls-2" d="M99.25,42.92,75.57,38.77l-29,6.59A2.13,2.13,0,0,1,44,43.71l-.66-3.07A2.15,2.15,0,0,1,45,38.1l27.86-5.92a2.09,2.09,0,0,1,1.54.25h0Z"/><path class="cls-2" d="M54.69,59.52s9.17-16.6,31.89-.87"/><path class="cls-3" d="M53.6,66.29s22.72,1.8,33-6.09C86.58,60.2,81.12,73.72,53.6,66.29Z"/><path class="cls-4" d="M81.46,64.89s5.78,8,15.83,2.28"/><path class="cls-4" d="M81.46,64.45s5.78,8,15.83,2.28"/><path class="cls-4" d="M81,64.89s5.77,8,15.82,2.28"/><path class="cls-4" d="M80.59,64.89s5.77,8,15.82,2.28"/><path class="cls-4" d="M80.59,65.76s5.77,8,15.82,2.28"/><path class="cls-4" d="M80.59,65.32s5.77,8,15.82,2.28"/><path class="cls-4" d="M79.72,65.76s5.77,8,15.82,2.28"/><path class="cls-4" d="M80.15,65.76S85.93,73.72,96,68"/><path class="cls-4" d="M78.41,66.2s5.77,8,15.82,2.28"/><path class="cls-4" d="M78.41,66.64s5.77,8,15.82,2.27"/><path class="cls-4" d="M78,66.64s5.77,8,15.82,2.27"/><path class="cls-4" d="M77.53,66.64s5.78,8,15.82,2.27"/><path class="cls-4" d="M77.1,66.64s5.77,8,15.82,2.27"/><path class="cls-4" d="M76.66,66.64s5.77,8,15.82,2.27"/><path class="cls-4" d="M76.22,66.64S82,74.59,92,68.91"/><path class="cls-4" d="M78.84,66.2s5.78,8,15.82,2.28"/><path class="cls-4" d="M79.28,66.2s5.77,8,15.82,2.28"/><path class="cls-4" d="M79.72,66.2s5.77,8,15.82,2.28"/><path class="cls-4" d="M76.22,67.07S82,75,92,69.35"/><path class="cls-4" d="M75.79,67.07s5.77,8,15.82,2.28"/><path class="cls-4" d="M75.79,67.51s5.77,8,15.82,2.28"/><path class="cls-4" d="M75.35,67.51s5.77,8,15.82,2.28"/><path class="cls-4" d="M74.47,67.51s5.78,8,15.83,2.28"/><path class="cls-4" d="M74,67.51s5.77,8,15.82,2.28"/><path class="cls-4" d="M73.6,67.51s5.77,8,15.82,2.28"/><path class="cls-4" d="M73.16,67.51s5.78,8,15.83,2.28"/><path class="cls-4" d="M72.73,67.51s5.77,8,15.82,2.28"/><path class="cls-4" d="M72.29,67.51s5.77,8,15.82,2.28"/><path class="cls-4" d="M71.85,67.51s5.78,8,15.82,2.28"/><path class="cls-4" d="M71.42,67.51s5.77,8,15.82,2.28"/><path class="cls-4" d="M71,67.51s5.77,8,15.82,2.28"/><path class="cls-4" d="M70.54,67.51s5.78,8,15.82,2.28"/><path class="cls-4" d="M70.11,67.51s5.77,8,15.82,2.28"/><path class="cls-4" d="M69.67,67.51s5.77,8,15.82,2.28"/><path class="cls-4" d="M69.23,67.51s5.78,8,15.82,2.28"/><path class="cls-4" d="M68.79,67.51s5.78,8,15.83,2.28"/><path class="cls-4" d="M68.36,67.51s5.77,8,15.82,2.28"/><path class="cls-4" d="M67.92,67.51s5.77,8,15.82,2.28"/><path class="cls-4" d="M67.48,67.51s5.78,8,15.83,2.28"/><path class="cls-4" d="M67.05,67.51s5.77,8,15.82,2.28"/><path class="cls-4" d="M74.91,67.51s5.77,8,15.82,2.28"/><path class="cls-4" d="M51,74.16a24.43,24.43,0,0,0,2.41-2.93,16.23,16.23,0,0,0,2.32-4.5"/><path class="cls-4" d="M51.44,74.13a23.66,23.66,0,0,0,2.41-2.92,16,16,0,0,0,2.32-4.51"/><path class="cls-4" d="M54.23,74a24.78,24.78,0,0,0,2.41-2.92A16.43,16.43,0,0,0,59,66.55"/><path class="cls-4" d="M53.76,74a23.66,23.66,0,0,0,2.41-2.92,16.26,16.26,0,0,0,2.33-4.5"/><path class="cls-4" d="M53.3,74a24.78,24.78,0,0,0,2.41-2.92A16.29,16.29,0,0,0,58,66.6"/><path class="cls-4" d="M52.83,74.05a23.66,23.66,0,0,0,2.41-2.92,16.26,16.26,0,0,0,2.33-4.5"/><path class="cls-4" d="M52.37,74.08a24.78,24.78,0,0,0,2.41-2.92,16.29,16.29,0,0,0,2.32-4.51"/><path class="cls-4" d="M51.91,74.11a25.47,25.47,0,0,0,2.41-2.93,16.23,16.23,0,0,0,2.32-4.5"/><path class="cls-4" d="M61.24,73.94s4.07-4.17,3.57-6.89"/><path class="cls-4" d="M60.81,73.94s4.07-4.17,3.56-6.89"/><path class="cls-4" d="M60.37,73.94s4.07-4.17,3.56-6.89"/><path class="cls-4" d="M59.93,73.94S64,69.77,63.5,67.05"/><path class="cls-4" d="M59.5,73.94s4.07-4.17,3.56-6.89"/><path class="cls-4" d="M59.06,73.94s4.07-4.17,3.56-6.89"/><path class="cls-4" d="M59.06,73.94s4.07-4.17,3.56-6.89"/><path class="cls-4" d="M58.62,73.94s4.07-4.17,3.57-6.89"/><path class="cls-4" d="M58.19,73.94s4.07-4.17,3.56-6.89"/><path class="cls-4" d="M57.75,73.94s4.07-4.17,3.56-6.89"/><path class="cls-4" d="M57.31,73.94s4.07-4.17,3.57-6.89"/><path class="cls-4" d="M56.87,73.94s4.07-4.17,3.57-6.89"/><path class="cls-4" d="M56.44,73.94s4.07-4.17,3.56-6.89"/><path class="cls-4" d="M56,73.94s4.07-4.17,3.57-6.89"/><path class="cls-4" d="M56,73.94s4.07-4.17,3.57-6.89"/><path class="cls-4" d="M55.56,73.94s4.07-4.17,3.57-6.89"/><path class="cls-4" d="M62.55,73.94s4.07-4.17,3.57-6.89"/><path class="cls-4" d="M62.12,73.94s4.07-4.17,3.56-6.89"/><path class="cls-4" d="M61.68,73.94s4.07-4.17,3.56-6.89"/><path class="cls-4" d="M64.3,73.94s4.07-4.17,3.57-6.89"/><path class="cls-4" d="M63.86,73.94s4.07-4.17,3.57-6.89"/><path class="cls-4" d="M63.43,73.94S67.5,69.77,67,67.05"/><path class="cls-4" d="M63,73.94s4.07-4.17,3.57-6.89"/><path class="cls-5" d="M69.75,72.69a7.2,7.2,0,0,1-1.67,6.93"/><path class="cls-4" d="M59,67.54s-1.59,4.43-3.91,6.4"/><polygon class="cls-5" points="55.98 85.82 19.17 94.62 18.18 94.86 18.79 97.41 56.59 88.37 55.98 85.82"/><path class="cls-4" d="M56.59,88.37c.81-2.82,3.12-2,3.12-2,15.3-2.19,9.62-7.86,9.62-7.86,1.31,3.49-8.74,3.93-8.74,3.93S55.3,83.51,56,85.82"/><path class="cls-2" d="M17.75,94.69Q36.32,89.41,54.91,84.2l1.84-.51"/><path class="cls-5" d="M55.75,66.69c-7.71,2.83-12.52,9.66-12,16C44.45,91.1,54.36,96.12,55,96.45l.63.29C66.92,102,77.89,100,82.88,98.8a31.33,31.33,0,0,0,14.9-9.25,30.88,30.88,0,0,0,6.68-12.33C105.15,69,100,62.15,93.68,61s-11.51,4.09-11.93,4.53"/></svg>