<svg id="Layer_1" data-name="Layer 1" xmlns="http://www.w3.org/2000/svg" width="140" height="170" viewBox="0 0 140 170"><defs><style>.cls-1{fill:#fff;}.cls-1,.cls-3{stroke:#000;stroke-miterlimit:10;stroke-width:0.5px;}.cls-2{font-size:21.57px;font-family:MyriadPro-Regular, Myriad Pro;}.cls-3{fill:none;}</style></defs><circle class="cls-1" cx="70" cy="69.3" r="67"/><path class="cls-1" d="M88,72.3v50H50v-50a19,19,0,0,1,38,0Z"/><path class="cls-1" d="M57,82,56.9,51.64a2.29,2.29,0,0,1,2.28-2.29l20.23-.06a2.29,2.29,0,0,1,2.29,2.27l.09,30.35a11.2,11.2,0,0,1-.07,1.3,12.39,12.39,0,0,1-24.65.08C57,82.86,57,82.43,57,82Z"/><text class="cls-2" transform="translate(15.37 164.81)">GELE NEGLE</text><polyline class="cls-1" points="72 16.3 73 24.3 87.39 24.3 88 16.3"/><rect class="cls-1" x="77" y="24.3" width="7" height="19"/><path class="cls-1" d="M80.5,43.3s-20.5-3.48,0,30.26"/><path class="cls-1" d="M80.39,73.56l1.08-1.8C100.15,40,80.39,43.3,80.39,43.3"/><line class="cls-1" x1="84.96" y1="43.66" x2="72.42" y2="56.77"/><line class="cls-1" x1="87.2" y1="44.88" x2="73.28" y2="59.34"/><line class="cls-3" x1="88.45" y1="46.34" x2="74.05" y2="61.26"/><line class="cls-3" x1="75.94" y1="65.38" x2="89.5" y2="51.54"/><line class="cls-3" x1="74.76" y1="62.9" x2="89.28" y2="48.49"/><line class="cls-3" x1="77" y1="67.43" x2="88.92" y2="55.12"/><line class="cls-3" x1="78.01" y1="69.29" x2="87.48" y2="59.68"/><line class="cls-3" x1="78.97" y1="70.98" x2="84.96" y2="65.1"/><line class="cls-1" x1="75.95" y1="43.66" x2="88.5" y2="56.77"/><line class="cls-1" x1="73.71" y1="44.88" x2="87.63" y2="59.34"/><line class="cls-3" x1="72.46" y1="46.34" x2="86.87" y2="61.26"/><line class="cls-3" x1="84.97" y1="65.38" x2="71.42" y2="51.54"/><line class="cls-3" x1="86.15" y1="62.9" x2="71.64" y2="48.49"/><line class="cls-3" x1="83.92" y1="67.43" x2="72" y2="55.12"/><line class="cls-3" x1="82.91" y1="69.29" x2="73.44" y2="59.68"/><line class="cls-3" x1="81.95" y1="70.98" x2="75.95" y2="65.1"/></svg>