<svg id="Layer_1" data-name="Layer 1" xmlns="http://www.w3.org/2000/svg" width="135" height="135" viewBox="0 0 135 135"><defs><style>.cls-1,.cls-3{fill:#fff;}.cls-1,.cls-2,.cls-3{stroke:#b7a27b;stroke-miterlimit:10;}.cls-2{fill:none;}.cls-3{stroke-width:0.25px;}</style></defs><circle class="cls-1" cx="66.92" cy="68.19" r="67"/><path class="cls-2" d="M85.92,71.19v50h-38v-50a19,19,0,0,1,38,0Z"/><path class="cls-1" d="M54.91,80.87l-.09-30.35a2.28,2.28,0,0,1,2.27-2.28l20.24-.06a2.26,2.26,0,0,1,2.28,2.27l.1,30.34c0,.45,0,.88-.07,1.31A12.39,12.39,0,0,1,55,82.17,11.2,11.2,0,0,1,54.91,80.87Z"/><polyline class="cls-3" points="69.92 15.19 70.92 23.19 85.31 23.19 85.92 15.19"/><rect class="cls-3" x="74.92" y="23.19" width="7" height="19"/><path class="cls-3" d="M78.42,42.19s-20.5-3.48,0,30.26"/><path class="cls-3" d="M78.31,72.45c.37-.61.73-1.21,1.07-1.8,18.69-31.81-1.07-28.46-1.07-28.46"/><line class="cls-3" x1="82.88" y1="42.54" x2="70.33" y2="55.66"/><line class="cls-3" x1="85.12" y1="43.76" x2="71.2" y2="58.23"/><line class="cls-3" x1="86.37" y1="45.22" x2="71.96" y2="60.15"/><line class="cls-3" x1="73.86" y1="64.27" x2="87.42" y2="50.43"/><line class="cls-3" x1="72.68" y1="61.79" x2="87.19" y2="47.38"/><line class="cls-3" x1="74.92" y1="66.32" x2="86.83" y2="54.01"/><line class="cls-3" x1="75.92" y1="68.17" x2="85.4" y2="58.57"/><line class="cls-3" x1="76.89" y1="69.87" x2="82.88" y2="63.98"/><line class="cls-3" x1="73.87" y1="42.54" x2="86.42" y2="55.66"/><line class="cls-3" x1="71.63" y1="43.76" x2="85.55" y2="58.23"/><line class="cls-3" x1="70.38" y1="45.22" x2="84.79" y2="60.15"/><line class="cls-3" x1="82.89" y1="64.27" x2="69.33" y2="50.43"/><line class="cls-3" x1="84.07" y1="61.79" x2="69.56" y2="47.38"/><line class="cls-3" x1="81.83" y1="66.32" x2="69.92" y2="54.01"/><line class="cls-3" x1="80.82" y1="68.17" x2="71.35" y2="58.57"/><line class="cls-3" x1="79.86" y1="69.87" x2="73.87" y2="63.98"/></svg>