<svg id="Layer_1" data-name="Layer 1" xmlns="http://www.w3.org/2000/svg" width="140" height="170" viewBox="0 0 140 170"><defs><style>.cls-1{font-size:21.57px;fill:#b7a27b;font-family:MyriadPro-Regular, Myriad Pro;}.cls-2{fill:#fff;stroke:#b7a27b;}.cls-2,.cls-3,.cls-5,.cls-6{stroke-miterlimit:10;}.cls-3,.cls-5,.cls-6{fill:none;stroke:#b8a37c;}.cls-4{fill:#b8a37c;}.cls-5{stroke-width:0.25px;}.cls-6{stroke-width:0.5px;}</style></defs><text class="cls-1" transform="translate(26.37 165.81)">LASH LIFT</text><circle class="cls-2" cx="69.68" cy="70.93" r="67"/><path class="cls-3" d="M101.68,46.66,78,42.51,49,49.1a2.14,2.14,0,0,1-2.54-1.65l-.65-3.07a2.14,2.14,0,0,1,1.65-2.54L75.3,35.92a2.1,2.1,0,0,1,1.54.26h0Z"/><path class="cls-3" d="M57.12,63.26s9.17-16.6,31.89-.87"/><path class="cls-4" d="M56,70s22.72,1.8,33-6.09C89,63.94,83.55,77.46,56,70Z"/><path class="cls-5" d="M83.89,68.63s5.77,8,15.82,2.28"/><path class="cls-5" d="M83.89,68.19s5.77,8,15.82,2.28"/><path class="cls-5" d="M83.45,68.63s5.78,8,15.83,2.28"/><path class="cls-5" d="M83,68.63s5.77,8,15.82,2.28"/><path class="cls-5" d="M83,69.5s5.77,8,15.82,2.28"/><path class="cls-5" d="M83,69.07s5.77,8,15.82,2.28"/><path class="cls-5" d="M82.14,69.5s5.78,8,15.82,2.28"/><path class="cls-5" d="M82.58,69.5s5.77,8,15.82,2.28"/><path class="cls-5" d="M80.83,69.94s5.78,8,15.82,2.28"/><path class="cls-5" d="M80.83,70.38s5.78,8,15.82,2.28"/><path class="cls-5" d="M80.4,70.38s5.77,8,15.82,2.28"/><path class="cls-5" d="M80,70.38s5.77,8,15.82,2.28"/><path class="cls-5" d="M79.52,70.38s5.78,8,15.82,2.28"/><path class="cls-5" d="M79.08,70.38s5.78,8,15.83,2.28"/><path class="cls-5" d="M78.65,70.38s5.77,8,15.82,2.28"/><path class="cls-5" d="M81.27,69.94s5.77,8,15.82,2.28"/><path class="cls-5" d="M81.71,69.94s5.77,8,15.82,2.28"/><path class="cls-5" d="M82.14,69.94s5.78,8,15.82,2.28"/><path class="cls-5" d="M78.65,70.81s5.77,8,15.82,2.28"/><path class="cls-5" d="M78.21,70.81S84,78.77,94,73.09"/><path class="cls-5" d="M78.21,71.25S84,79.21,94,73.53"/><path class="cls-5" d="M77.77,71.25s5.78,8,15.83,2.28"/><path class="cls-5" d="M76.9,71.25s5.77,8,15.82,2.28"/><path class="cls-5" d="M76.46,71.25s5.78,8,15.83,2.28"/><path class="cls-5" d="M76,71.25s5.77,8,15.82,2.28"/><path class="cls-5" d="M75.59,71.25s5.77,8,15.82,2.28"/><path class="cls-5" d="M75.15,71.25s5.78,8,15.82,2.28"/><path class="cls-5" d="M74.72,71.25s5.77,8,15.82,2.28"/><path class="cls-5" d="M74.28,71.25s5.77,8,15.82,2.28"/><path class="cls-5" d="M73.84,71.25s5.78,8,15.82,2.28"/><path class="cls-5" d="M73.41,71.25s5.77,8,15.82,2.28"/><path class="cls-5" d="M73,71.25s5.77,8,15.82,2.28"/><path class="cls-5" d="M72.53,71.25s5.78,8,15.82,2.28"/><path class="cls-5" d="M72.09,71.25s5.78,8,15.83,2.28"/><path class="cls-5" d="M71.66,71.25s5.77,8,15.82,2.28"/><path class="cls-5" d="M71.22,71.25S77,79.21,87,73.53"/><path class="cls-5" d="M70.78,71.25s5.78,8,15.83,2.28"/><path class="cls-5" d="M70.35,71.25s5.77,8,15.82,2.28"/><path class="cls-5" d="M69.91,71.25s5.77,8,15.82,2.28"/><path class="cls-5" d="M69.47,71.25s5.78,8,15.83,2.28"/><path class="cls-5" d="M77.34,71.25s5.77,8,15.82,2.28"/><path class="cls-5" d="M53.4,77.9A23.66,23.66,0,0,0,55.81,75a16.32,16.32,0,0,0,2.33-4.51"/><path class="cls-5" d="M53.87,77.87A24.78,24.78,0,0,0,56.28,75a16.23,16.23,0,0,0,2.32-4.5"/><path class="cls-5" d="M56.65,77.72a23.66,23.66,0,0,0,2.41-2.92,16.32,16.32,0,0,0,2.33-4.51"/><path class="cls-5" d="M56.19,77.74a24.78,24.78,0,0,0,2.41-2.92,16.23,16.23,0,0,0,2.32-4.5"/><path class="cls-5" d="M55.72,77.77a24.22,24.22,0,0,0,2.42-2.92,16.57,16.57,0,0,0,2.32-4.51"/><path class="cls-5" d="M55.26,77.8a25.47,25.47,0,0,0,2.41-2.93A16.23,16.23,0,0,0,60,70.37"/><path class="cls-5" d="M54.8,77.82a24.78,24.78,0,0,0,2.41-2.92,16.37,16.37,0,0,0,2.32-4.5"/><path class="cls-5" d="M54.33,77.85a23.66,23.66,0,0,0,2.41-2.92,16.16,16.16,0,0,0,2.32-4.51"/><path class="cls-5" d="M63.67,77.68s4.07-4.17,3.56-6.89"/><path class="cls-5" d="M63.23,77.68s4.07-4.17,3.57-6.89"/><path class="cls-5" d="M62.8,77.68s4.07-4.17,3.56-6.89"/><path class="cls-5" d="M62.36,77.68s4.07-4.17,3.56-6.89"/><path class="cls-5" d="M61.92,77.68s4.07-4.17,3.57-6.89"/><path class="cls-5" d="M61.49,77.68s4.06-4.17,3.56-6.89"/><path class="cls-5" d="M61.49,77.68s4.06-4.17,3.56-6.89"/><path class="cls-5" d="M61.05,77.68s4.07-4.17,3.56-6.89"/><path class="cls-5" d="M60.61,77.68s4.07-4.17,3.57-6.89"/><path class="cls-5" d="M60.17,77.68s4.07-4.17,3.57-6.89"/><path class="cls-5" d="M59.74,77.68s4.07-4.17,3.56-6.89"/><path class="cls-5" d="M59.3,77.68s4.07-4.17,3.56-6.89"/><path class="cls-5" d="M58.86,77.68s4.07-4.17,3.57-6.89"/><path class="cls-5" d="M58.43,77.68S62.5,73.51,62,70.79"/><path class="cls-5" d="M58.43,77.68S62.5,73.51,62,70.79"/><path class="cls-5" d="M58,77.68s4.07-4.17,3.56-6.89"/><path class="cls-5" d="M65,77.68s4.07-4.17,3.56-6.89"/><path class="cls-5" d="M64.54,77.68s4.07-4.17,3.57-6.89"/><path class="cls-5" d="M64.11,77.68s4.07-4.17,3.56-6.89"/><path class="cls-5" d="M66.73,77.68s4.07-4.17,3.56-6.89"/><path class="cls-5" d="M66.29,77.68s4.07-4.17,3.56-6.89"/><path class="cls-5" d="M65.85,77.68s4.07-4.17,3.57-6.89"/><path class="cls-5" d="M65.42,77.68s4.07-4.17,3.56-6.89"/><path class="cls-6" d="M72.18,76.43a7.29,7.29,0,0,1,0,4,7.18,7.18,0,0,1-1.68,2.93"/><path class="cls-5" d="M61.39,71.28s-1.59,4.43-3.91,6.4"/><polygon class="cls-6" points="58.41 89.57 21.6 98.36 20.61 98.6 21.21 101.15 59.02 92.12 58.41 89.57"/><path class="cls-5" d="M59,92.12c.8-2.83,3.12-2,3.12-2,15.29-2.18,9.61-7.86,9.61-7.86C73.06,85.76,63,86.2,63,86.2s-5.28,1-4.6,3.37"/><path class="cls-3" d="M20.18,98.43Q38.75,93.17,57.33,88l1.85-.52"/><path class="cls-6" d="M58.18,70.43c-7.71,2.83-12.53,9.67-12,16,.7,8.41,10.61,13.43,11.27,13.76l.63.29c11.26,5.21,22.23,3.3,27.23,2.06A30.78,30.78,0,0,0,106.89,81c.69-8.22-4.44-15.06-10.78-16.19S84.6,68.86,84.18,69.31"/></svg>