<svg id="Layer_1" data-name="Layer 1" xmlns="http://www.w3.org/2000/svg" width="140" height="170" viewBox="0 0 140 170"><defs><style>.cls-1{font-size:21.57px;fill:#b7a27b;font-family:MyriadPro-Regular, Myriad Pro;}.cls-2,.cls-4{fill:#fff;}.cls-2,.cls-3,.cls-4{stroke:#b7a27b;stroke-miterlimit:10;}.cls-3{fill:none;}.cls-4{stroke-width:0.25px;}</style></defs><text class="cls-1" transform="translate(16.37 162.81)">GELE NEGLE</text><circle class="cls-2" cx="70" cy="69.3" r="67"/><path class="cls-3" d="M89,72.3v50H51v-50a19,19,0,0,1,38,0Z"/><path class="cls-2" d="M58,82,57.9,51.64a2.29,2.29,0,0,1,2.28-2.29l20.23-.06a2.29,2.29,0,0,1,2.29,2.27l.09,30.35a11.2,11.2,0,0,1-.07,1.3,12.39,12.39,0,0,1-24.65.08C58,82.86,58,82.43,58,82Z"/><polyline class="cls-4" points="73 16.3 74 24.3 88.39 24.3 89 16.3"/><rect class="cls-4" x="78" y="24.3" width="7" height="19"/><path class="cls-4" d="M81.5,43.3s-20.5-3.48,0,30.26"/><path class="cls-4" d="M81.39,73.56l1.08-1.8C101.15,40,81.39,43.3,81.39,43.3"/><line class="cls-4" x1="85.96" y1="43.66" x2="73.42" y2="56.77"/><line class="cls-4" x1="88.2" y1="44.88" x2="74.28" y2="59.34"/><line class="cls-4" x1="89.45" y1="46.34" x2="75.05" y2="61.26"/><line class="cls-4" x1="76.94" y1="65.38" x2="90.5" y2="51.54"/><line class="cls-4" x1="75.76" y1="62.9" x2="90.28" y2="48.49"/><line class="cls-4" x1="78" y1="67.43" x2="89.92" y2="55.12"/><line class="cls-4" x1="79.01" y1="69.29" x2="88.48" y2="59.68"/><line class="cls-4" x1="79.97" y1="70.98" x2="85.96" y2="65.1"/><line class="cls-4" x1="76.95" y1="43.66" x2="89.5" y2="56.77"/><line class="cls-4" x1="74.71" y1="44.88" x2="88.63" y2="59.34"/><line class="cls-4" x1="73.46" y1="46.34" x2="87.87" y2="61.26"/><line class="cls-4" x1="85.97" y1="65.38" x2="72.42" y2="51.54"/><line class="cls-4" x1="87.15" y1="62.9" x2="72.64" y2="48.49"/><line class="cls-4" x1="84.92" y1="67.43" x2="73" y2="55.12"/><line class="cls-4" x1="83.91" y1="69.29" x2="74.44" y2="59.68"/><line class="cls-4" x1="82.95" y1="70.98" x2="76.95" y2="65.1"/></svg>