<svg id="Layer_1" data-name="Layer 1" xmlns="http://www.w3.org/2000/svg" width="135" height="135" viewBox="0 0 135 135"><defs><style>.cls-1{fill:#fff;}.cls-1,.cls-2{stroke:#b8a37c;stroke-miterlimit:10;stroke-width:0.5px;}.cls-2{fill:none;}</style></defs><circle class="cls-1" cx="67.21" cy="67.42" r="67"/><path class="cls-2" d="M79.87,112.19a55.4,55.4,0,0,0,25.8-12.13c18-15.33,19.36-37.28,19.54-41.51h-7.39a4.47,4.47,0,0,1-4.6.26l-2.4-1.2c-4.19-1.2-4.38,8.37-4.38,8.37-1.39-1.22-1.61-7.77-1.61-7.77-3.59-4.19-6,0-6,0L95,57.91c-3.39-9.92-8.4-6.17-8.68-5.69,0,0-11.68,12.28-15.88,13.47a5,5,0,0,1-4.2-.4A3.91,3.91,0,0,1,65,63.9"/><path class="cls-2" d="M76.08,80.37a13.55,13.55,0,0,0,0-10.67"/><path class="cls-2" d="M65.81,68.87l-.23,9L69.77,85,67.43,77.4,68,68.87h-2.4"/><path class="cls-2" d="M9.71,56.74c5.43.79,11.35,1.41,17.7,1.75,5.24.28,10.2.33,14.84.24L64.41,60.9"/><path class="cls-2" d="M10.57,46.35l33.77,6.47s13.18,9,20.07,8.08a5.24,5.24,0,0,1-2.1,6.19l-.6.1c-4.79,3.6-19.16-.6-19.16-.6s7.78,9.59,12,10.18c0,0,29.35,19.17,28.15,27.55,0,0-.6,4.2-9.58-4.19S50.93,84.56,50.93,84.56s35.34,22.76,30.54,27S48.53,93,48.53,93s25.76,18.56,24.56,20.36S43.21,97.84,42.55,98.93c-.36.59,7.47,6.12,20.87,15"/></svg>