<svg id="Layer_1" data-name="Layer 1" xmlns="http://www.w3.org/2000/svg" width="135" height="135" viewBox="0 0 135 135"><defs><style>.cls-1{fill:#fff;}.cls-1,.cls-2{stroke:#000;stroke-miterlimit:10;stroke-width:0.5px;}.cls-2{fill:none;}</style></defs><circle class="cls-1" cx="67.5" cy="67.5" r="67"/><path class="cls-2" d="M86.5,59.5v50h-38v-50a19,19,0,0,1,38,0Z"/><path class="cls-1" d="M55.49,70.18,55.4,37.56l24.79-.08.1,32.63a11.2,11.2,0,0,1-.07,1.3,12.39,12.39,0,0,1-24.65.08C55.52,71.06,55.5,70.62,55.49,70.18Z"/><polygon class="cls-2" points="64.5 34.5 58.5 53.5 77.52 53.5 70.84 34.5 64.5 34.5"/><line class="cls-2" x1="63.73" y1="53.5" x2="66.45" y2="34.5"/><line class="cls-2" x1="71.45" y1="53.5" x2="68.73" y2="34.5"/><polyline class="cls-2" points="63.5 16.97 63.5 34.5 71.5 34.5 71.45 16.97"/></svg>