<svg id="Layer_1" data-name="Layer 1" xmlns="http://www.w3.org/2000/svg" width="140" height="170" viewBox="0 0 140 170"><defs><style>.cls-1{font-size:21.57px;font-family:MyriadPro-Regular, Myriad Pro;}.cls-2{fill:#fff;}.cls-2,.cls-3,.cls-4{stroke:#000;stroke-miterlimit:10;stroke-width:0.25px;}.cls-3{fill:none;}</style></defs><text class="cls-1" transform="translate(27.37 164.81)">LASH LIFT</text><circle class="cls-2" cx="70.18" cy="69.43" r="67"/><path class="cls-3" d="M102.18,45.16,78.49,41l-29,6.59A2.14,2.14,0,0,1,46.94,46l-.65-3.07a2.14,2.14,0,0,1,1.65-2.54L75.8,34.42a2.1,2.1,0,0,1,1.54.26h0Z"/><path class="cls-3" d="M57.62,61.76s9.17-16.6,31.89-.87"/><path class="cls-4" d="M56.52,68.53s22.72,1.8,33-6.09C89.51,62.44,84.05,76,56.52,68.53Z"/><path class="cls-3" d="M84.39,67.13s5.77,8,15.82,2.28"/><path class="cls-3" d="M84.39,66.69s5.77,8,15.82,2.28"/><path class="cls-3" d="M84,67.13s5.78,8,15.83,2.28"/><path class="cls-3" d="M83.52,67.13s5.77,8,15.82,2.28"/><path class="cls-3" d="M83.52,68s5.77,8,15.82,2.28"/><path class="cls-3" d="M83.52,67.57s5.77,8,15.82,2.28"/><path class="cls-3" d="M82.64,68s5.78,8,15.82,2.28"/><path class="cls-3" d="M83.08,68s5.77,8,15.82,2.28"/><path class="cls-3" d="M81.33,68.44s5.78,8,15.82,2.28"/><path class="cls-3" d="M81.33,68.88s5.78,8,15.82,2.28"/><path class="cls-3" d="M80.9,68.88s5.77,8,15.82,2.28"/><path class="cls-3" d="M80.46,68.88s5.77,8,15.82,2.28"/><path class="cls-3" d="M80,68.88s5.78,8,15.82,2.28"/><path class="cls-3" d="M79.58,68.88s5.78,8,15.83,2.28"/><path class="cls-3" d="M79.15,68.88s5.77,8,15.82,2.28"/><path class="cls-3" d="M81.77,68.44s5.77,8,15.82,2.28"/><path class="cls-3" d="M82.21,68.44S88,76.4,98,70.72"/><path class="cls-3" d="M82.64,68.44s5.78,8,15.82,2.28"/><path class="cls-3" d="M79.15,69.31s5.77,8,15.82,2.28"/><path class="cls-3" d="M78.71,69.31s5.77,8,15.82,2.28"/><path class="cls-3" d="M78.71,69.75s5.77,8,15.82,2.28"/><path class="cls-3" d="M78.27,69.75s5.78,8,15.83,2.28"/><path class="cls-3" d="M77.4,69.75s5.77,8,15.82,2.28"/><path class="cls-3" d="M77,69.75s5.78,8,15.83,2.28"/><path class="cls-3" d="M76.53,69.75s5.77,8,15.82,2.28"/><path class="cls-3" d="M76.09,69.75s5.77,8,15.82,2.28"/><path class="cls-3" d="M75.65,69.75s5.78,8,15.82,2.28"/><path class="cls-3" d="M75.22,69.75S81,77.71,91,72"/><path class="cls-3" d="M74.78,69.75s5.77,8,15.82,2.28"/><path class="cls-3" d="M74.34,69.75s5.78,8,15.82,2.28"/><path class="cls-3" d="M73.91,69.75s5.77,8,15.82,2.28"/><path class="cls-3" d="M73.47,69.75s5.77,8,15.82,2.28"/><path class="cls-3" d="M73,69.75s5.78,8,15.82,2.28"/><path class="cls-3" d="M72.59,69.75s5.78,8,15.83,2.28"/><path class="cls-3" d="M72.16,69.75S77.93,77.71,88,72"/><path class="cls-3" d="M71.72,69.75s5.77,8,15.82,2.28"/><path class="cls-3" d="M71.28,69.75s5.78,8,15.83,2.28"/><path class="cls-3" d="M70.85,69.75s5.77,8,15.82,2.28"/><path class="cls-3" d="M70.41,69.75s5.77,8,15.82,2.28"/><path class="cls-3" d="M70,69.75s5.78,8,15.83,2.28"/><path class="cls-3" d="M77.84,69.75s5.77,8,15.82,2.28"/><path class="cls-3" d="M53.9,76.4a23.66,23.66,0,0,0,2.41-2.92A16.32,16.32,0,0,0,58.64,69"/><path class="cls-3" d="M54.37,76.37a24.78,24.78,0,0,0,2.41-2.92A16.23,16.23,0,0,0,59.1,69"/><path class="cls-3" d="M57.15,76.22a23.66,23.66,0,0,0,2.41-2.92,16.32,16.32,0,0,0,2.33-4.51"/><path class="cls-3" d="M56.69,76.24a24.78,24.78,0,0,0,2.41-2.92,16.23,16.23,0,0,0,2.32-4.5"/><path class="cls-3" d="M56.22,76.27a24.22,24.22,0,0,0,2.42-2.92A16.57,16.57,0,0,0,61,68.84"/><path class="cls-3" d="M55.76,76.3a25.47,25.47,0,0,0,2.41-2.93,16.23,16.23,0,0,0,2.32-4.5"/><path class="cls-3" d="M55.3,76.32a24.78,24.78,0,0,0,2.41-2.92A16.37,16.37,0,0,0,60,68.9"/><path class="cls-3" d="M54.83,76.35a23.66,23.66,0,0,0,2.41-2.92,16.16,16.16,0,0,0,2.32-4.51"/><path class="cls-3" d="M64.17,76.18s4.07-4.17,3.56-6.89"/><path class="cls-3" d="M63.73,76.18S67.8,72,67.3,69.29"/><path class="cls-3" d="M63.3,76.18s4.07-4.17,3.56-6.89"/><path class="cls-3" d="M62.86,76.18s4.07-4.17,3.56-6.89"/><path class="cls-3" d="M62.42,76.18S66.49,72,66,69.29"/><path class="cls-3" d="M62,76.18s4.06-4.17,3.56-6.89"/><path class="cls-3" d="M62,76.18s4.06-4.17,3.56-6.89"/><path class="cls-3" d="M61.55,76.18s4.07-4.17,3.56-6.89"/><path class="cls-3" d="M61.11,76.18s4.07-4.17,3.57-6.89"/><path class="cls-3" d="M60.67,76.18s4.07-4.17,3.57-6.89"/><path class="cls-3" d="M60.24,76.18S64.31,72,63.8,69.29"/><path class="cls-3" d="M59.8,76.18s4.07-4.17,3.56-6.89"/><path class="cls-3" d="M59.36,76.18s4.07-4.17,3.57-6.89"/><path class="cls-3" d="M58.93,76.18S63,72,62.49,69.29"/><path class="cls-3" d="M58.93,76.18S63,72,62.49,69.29"/><path class="cls-3" d="M58.49,76.18s4.07-4.17,3.56-6.89"/><path class="cls-3" d="M65.48,76.18S69.55,72,69,69.29"/><path class="cls-3" d="M65,76.18s4.07-4.17,3.57-6.89"/><path class="cls-3" d="M64.61,76.18s4.07-4.17,3.56-6.89"/><path class="cls-3" d="M67.23,76.18S71.3,72,70.79,69.29"/><path class="cls-3" d="M66.79,76.18s4.07-4.17,3.56-6.89"/><path class="cls-3" d="M66.35,76.18s4.07-4.17,3.57-6.89"/><path class="cls-3" d="M65.92,76.18S70,72,69.48,69.29"/><path class="cls-3" d="M72.68,74.93a7.29,7.29,0,0,1,0,4A7.18,7.18,0,0,1,71,81.86"/><path class="cls-3" d="M61.89,69.78S60.3,74.21,58,76.18"/><polygon class="cls-3" points="58.91 88.07 22.1 96.86 21.11 97.1 21.71 99.65 59.52 90.62 58.91 88.07"/><path class="cls-3" d="M59.52,90.62c.8-2.83,3.12-2,3.12-2,15.29-2.18,9.61-7.86,9.61-7.86,1.31,3.49-8.74,3.93-8.74,3.93s-5.28,1-4.6,3.37"/><path class="cls-3" d="M20.68,96.93q18.57-5.27,37.15-10.48l1.85-.52"/><path class="cls-3" d="M58.68,68.93c-7.71,2.83-12.53,9.67-12,16,.7,8.41,10.61,13.43,11.27,13.76l.63.29c11.26,5.21,22.23,3.3,27.23,2.06a30.78,30.78,0,0,0,21.58-21.58c.69-8.22-4.44-15.06-10.78-16.19S85.1,67.36,84.68,67.81"/></svg>