<svg id="Layer_1" data-name="Layer 1" xmlns="http://www.w3.org/2000/svg" width="1920" height="1080" viewBox="0 0 1920 1080"><defs><style>.cls-1{fill:#d9d7d7;opacity:0.51;}.cls-2{fill:#b7a27b;}.cls-3{fill:#fff;}.cls-4{fill:#b8a37c;}.cls-5{opacity:0.46;}</style></defs><rect class="cls-1" width="1920" height="1080"/><path class="cls-2" d="M966.19,396.41c-86.56,0-157-70.42-157-157s70.42-157,157-157,157,70.42,157,157S1052.75,396.41,966.19,396.41Zm0-309c-83.8,0-152,68.18-152,152s68.18,152,152,152,152-68.18,152-152S1050,87.44,966.19,87.44Z"/><path class="cls-3" d="M1010,221V336.27H922.38V221a41.22,41.22,0,0,1,.26-4.61A43.81,43.81,0,0,1,1010,221Z"/><path class="cls-2" d="M1011.5,337.77H920.88V221a46.47,46.47,0,0,1,.26-4.77,45.3,45.3,0,0,1,90.1,0,46.77,46.77,0,0,1,.26,4.77Zm-87.62-3h84.62V221a40.63,40.63,0,0,0-.25-4.45,42.29,42.29,0,0,0-84.12,0,40.81,40.81,0,0,0-.25,4.46Z"/><path class="cls-3" d="M938.51,245.61l-.23-75.22,57.17-.18.23,75.23a30,30,0,0,1-.16,3,28.58,28.58,0,0,1-56.84.17A30,30,0,0,1,938.51,245.61Z"/><path class="cls-2" d="M967.09,275.61a30,30,0,0,1-29.9-26.83,29.16,29.16,0,0,1-.18-3.17l-.23-76.72,60.17-.18.23,76.72a29,29,0,0,1-.17,3.17,30,30,0,0,1-29.83,27Zm-27.3-103.73L940,245.6a28.32,28.32,0,0,0,.16,2.85,27,27,0,0,0,26.92,24.16h.08A27,27,0,0,0,994,248.29a28.08,28.08,0,0,0,.15-2.85L994,171.72Z"/><polygon class="cls-3" points="959.27 163.34 945.44 207.15 989.3 207.15 973.88 163.34 959.27 163.34"/><path class="cls-2" d="M991.42,208.65h-48l14.78-46.81H975Zm-43.93-3h39.69l-14.36-40.81H960.37Z"/><rect class="cls-2" x="938.5" y="184.74" width="44.26" height="1" transform="translate(641.27 1109.98) rotate(-81.86)"/><rect class="cls-2" x="971.66" y="163.11" width="1" height="44.26" transform="translate(-16.43 139.46) rotate(-8.14)"/><polyline class="cls-3" points="956.97 122.92 956.97 163.34 975.41 163.34 975.29 122.92"/><polygon class="cls-2" points="976.92 164.84 955.47 164.84 955.47 122.92 958.47 122.92 958.47 161.84 973.91 161.84 973.79 122.93 976.79 122.92 976.92 164.84"/><path class="cls-2" d="M849,458.54a21.35,21.35,0,0,1-8.85,1.6c-9.45,0-16.56-6-16.56-17,0-10.49,7.11-17.61,17.5-17.61a17.88,17.88,0,0,1,8,1.5l-1,3.53a15.65,15.65,0,0,0-6.76-1.4c-7.86,0-13.08,5-13.08,13.83,0,8.2,4.73,13.48,12.88,13.48a17.21,17.21,0,0,0,7.06-1.4Z"/><path class="cls-2" d="M854.4,459.64V426.12h4.72l10.74,17a94.41,94.41,0,0,1,6,10.89l.1-.05c-.4-4.48-.5-8.55-.5-13.77v-14h4.08v33.52h-4.37l-10.65-17a107.55,107.55,0,0,1-6.26-11.19l-.15.05c.25,4.23.35,8.26.35,13.83v14.32Z"/><path class="cls-2" d="M887.12,426.57a61.6,61.6,0,0,1,9.2-.7c6.22,0,10.64,1.44,13.58,4.18s4.72,6.61,4.72,12-1.69,9.95-4.82,13-8.31,4.83-14.82,4.83a69.45,69.45,0,0,1-7.86-.4Zm4.33,29.64a27.07,27.07,0,0,0,4.37.25c9.25,0,14.27-5.18,14.27-14.23,0-7.9-4.42-12.93-13.57-12.93a24.38,24.38,0,0,0-5.07.45Z"/><path class="cls-2" d="M930.18,454.37a15.39,15.39,0,0,0,7.76,2.19c4.43,0,7-2.34,7-5.72,0-3.14-1.79-4.93-6.31-6.67-5.47-1.94-8.86-4.77-8.86-9.5,0-5.22,4.33-9.1,10.85-9.1a15.19,15.19,0,0,1,7.41,1.65l-1.2,3.53a13.27,13.27,0,0,0-6.36-1.6c-4.58,0-6.32,2.74-6.32,5,0,3.13,2,4.67,6.66,6.46,5.67,2.19,8.56,4.92,8.56,9.85,0,5.17-3.83,9.65-11.74,9.65a17.35,17.35,0,0,1-8.55-2.14Z"/><path class="cls-2" d="M959.62,426.12v14h16.21v-14h4.38v33.52h-4.38V443.92H959.62v15.72h-4.33V426.12Z"/><path class="cls-2" d="M1005.07,443.92H992V456h14.52v3.63H987.72V426.12h18.1v3.63H992v10.59h13Z"/><path class="cls-2" d="M1012.18,426.12h4.33V456h14.32v3.63h-18.65Z"/><path class="cls-2" d="M1035.65,426.12H1040V456h14.32v3.63h-18.65Z"/><path class="cls-2" d="M1064.54,449.1l-3.48,10.54h-4.47L1068,426.12h5.22l11.44,33.52H1080l-3.58-10.54Zm11-3.39-3.29-9.64c-.74-2.19-1.24-4.18-1.74-6.12h-.1c-.49,2-1,4-1.69,6.07l-3.28,9.69Z"/><path class="cls-2" d="M1112.23,458.54a21.35,21.35,0,0,1-8.85,1.6c-9.45,0-16.56-6-16.56-17,0-10.49,7.11-17.61,17.51-17.61a17.86,17.86,0,0,1,8,1.5l-1,3.53a15.68,15.68,0,0,0-6.76-1.4c-7.86,0-13.08,5-13.08,13.83,0,8.2,4.72,13.48,12.88,13.48a17.25,17.25,0,0,0,7.06-1.4Z"/><path class="cls-3" d="M705.42,710.78c-17.69,6.49-28.75,22.18-27.54,36.72,1.6,19.3,24.35,30.84,25.86,31.58l1.45.68c25.86,12,51,7.57,62.5,4.71a71.63,71.63,0,0,0,34.2-21.23,70.92,70.92,0,0,0,15.33-28.3c1.58-18.85-10.19-34.57-24.74-37.16-14.78-2.62-26.41,9.39-27.38,10.42"/><path class="cls-4" d="M742.15,788.68a88.33,88.33,0,0,1-37.38-8l-.32-.14L703.3,780c-1-.5-24.75-12.38-26.42-32.4-1.28-15.4,10.58-31.27,28.2-37.74l.69,1.87c-16.79,6.17-28.1,21.18-26.9,35.71,1.58,18.9,24.34,30.29,25.31,30.76l1.1.52.33.15c23.3,10.77,46.49,8.47,61.84,4.65a69.62,69.62,0,0,0,48.79-48.73c1.42-17.56-9.07-33.36-23.93-36-14.15-2.52-25.26,8.81-26.48,10.11l-1.46-1.37c1.3-1.38,13.11-13.41,28.29-10.71,15.89,2.82,27.12,19.61,25.56,38.22l0,.19A71.65,71.65,0,0,1,768,785.44,107.88,107.88,0,0,1,742.15,788.68Z"/><path class="cls-2" d="M636.17,899.33h4.31v29.75h14.25v3.61H636.17Z"/><path class="cls-2" d="M664.93,922.2l-3.46,10.49H657l11.34-33.36h5.19l11.39,33.36h-4.61l-3.56-10.49Zm10.94-3.37-3.27-9.6c-.74-2.18-1.23-4.16-1.73-6.09h-.1c-.49,2-1,4-1.68,6l-3.27,9.65Z"/><path class="cls-2" d="M689.24,927.45a15.33,15.33,0,0,0,7.72,2.17c4.4,0,7-2.32,7-5.69,0-3.12-1.78-4.9-6.29-6.63-5.44-1.93-8.81-4.75-8.81-9.45,0-5.2,4.31-9.06,10.79-9.06a15.2,15.2,0,0,1,7.38,1.63l-1.19,3.51a13.36,13.36,0,0,0-6.34-1.58c-4.55,0-6.28,2.72-6.28,5,0,3.12,2,4.65,6.63,6.44,5.64,2.17,8.51,4.9,8.51,9.8,0,5.14-3.81,9.6-11.68,9.6a17.19,17.19,0,0,1-8.51-2.13Z"/><path class="cls-2" d="M718.54,899.33v14h16.14v-14H739v33.36h-4.35V917.05H718.54v15.64h-4.31V899.33Z"/><path class="cls-2" d="M757,899.33h4.31v29.75h14.26v3.61H757Z"/><path class="cls-2" d="M784.68,899.33v33.36h-4.31V899.33Z"/><path class="cls-2" d="M792.2,899.33h18V903H796.51V914h12.62v3.57H796.51v15.09H792.2Z"/><path class="cls-2" d="M822.64,903H812.5v-3.66h24.7V903H827v29.7h-4.36Z"/><path class="cls-2" d="M731.82,868.21c-86.18,0-156.29-70.11-156.29-156.29s70.11-156.28,156.29-156.28S888.1,625.75,888.1,711.92,818,868.21,731.82,868.21Zm0-307.57c-83.42,0-151.29,67.86-151.29,151.28S648.4,863.21,731.82,863.21,883.1,795.34,883.1,711.92,815.24,560.64,731.82,560.64Z"/><path class="cls-4" d="M683.3,663.43a6.42,6.42,0,0,1-6.28-5.08l-1.5-7.05a6.44,6.44,0,0,1,4.94-7.62l63.95-13.58a6.29,6.29,0,0,1,4.53.72L818,660l-67.09-11.76-66.29,15.07A7,7,0,0,1,683.3,663.43ZM745.75,633a3.36,3.36,0,0,0-.71.08l-64,13.59a3.43,3.43,0,0,0-2.63,4.06l1.5,7a3.42,3.42,0,0,0,4,2.64l66.87-15.19,41.63,7.29-45-19A3.3,3.3,0,0,0,745.75,633Z"/><path class="cls-4" d="M704.73,695.3l-3.5-1.94a39.26,39.26,0,0,1,24.39-17.5c15-3.52,32.42,1.47,51.7,14.82L775.05,694c-18.28-12.65-34.58-17.44-48.45-14.22A35.85,35.85,0,0,0,704.73,695.3Z"/><path class="cls-4" d="M700.48,709.87s52.14,4.12,75.71-14C776.19,695.89,763.65,726.92,700.48,709.87Z"/><path class="cls-4" d="M784.65,716.67a25,25,0,0,1-10.76-2.41,27.3,27.3,0,0,1-9.55-7.54l.2-.15A26.89,26.89,0,0,0,774,714c5.63,2.66,14.82,4.43,26.68-2.27l.13.21C794.68,715.45,789.25,716.67,784.65,716.67Z"/><path class="cls-4" d="M784.65,715.67a25,25,0,0,1-10.76-2.41,27.14,27.14,0,0,1-9.55-7.55l.2-.14A27,27,0,0,0,774,713c5.63,2.66,14.82,4.43,26.68-2.28l.13.22C794.68,714.45,789.25,715.67,784.65,715.67Z"/><path class="cls-4" d="M783.64,716.67a25,25,0,0,1-10.75-2.41,27.52,27.52,0,0,1-9.56-7.54l.21-.15A26.89,26.89,0,0,0,773,714c5.62,2.66,14.82,4.43,26.68-2.27l.12.21A32.66,32.66,0,0,1,783.64,716.67Z"/><path class="cls-4" d="M782.64,716.67a24.93,24.93,0,0,1-10.75-2.41,27.4,27.4,0,0,1-9.56-7.54l.2-.15A27.1,27.1,0,0,0,772,714c5.62,2.66,14.82,4.43,26.68-2.27l.12.21C792.67,715.45,787.24,716.67,782.64,716.67Z"/><path class="cls-4" d="M782.64,718.67a24.94,24.94,0,0,1-10.75-2.4,27.23,27.23,0,0,1-9.56-7.55l.2-.14A27.14,27.14,0,0,0,772,716c5.62,2.67,14.81,4.44,26.68-2.27l.12.22A32.69,32.69,0,0,1,782.64,718.67Z"/><path class="cls-4" d="M782.64,717.67a24.93,24.93,0,0,1-10.75-2.41,27.15,27.15,0,0,1-9.56-7.54l.2-.15A27.1,27.1,0,0,0,772,715c5.62,2.67,14.82,4.43,26.68-2.27l.12.22C792.67,716.45,787.24,717.67,782.64,717.67Z"/><path class="cls-4" d="M780.64,718.67a25,25,0,0,1-10.76-2.4,27.14,27.14,0,0,1-9.55-7.55l.2-.14A26.92,26.92,0,0,0,770,716c5.62,2.67,14.82,4.44,26.68-2.27l.12.22A32.63,32.63,0,0,1,780.64,718.67Z"/><path class="cls-4" d="M781.64,718.67a24.94,24.94,0,0,1-10.75-2.4,27.12,27.12,0,0,1-9.56-7.55l.2-.14A26.92,26.92,0,0,0,771,716c5.63,2.67,14.82,4.44,26.68-2.27l.13.22A32.69,32.69,0,0,1,781.64,718.67Z"/><path class="cls-4" d="M777.63,719.68a25,25,0,0,1-10.76-2.41,27.3,27.3,0,0,1-9.55-7.54l.2-.15a27,27,0,0,0,9.47,7.47c5.63,2.66,14.82,4.43,26.68-2.28l.13.22C787.66,718.46,782.23,719.68,777.63,719.68Z"/><path class="cls-4" d="M777.63,720.68a25,25,0,0,1-10.76-2.41,27.3,27.3,0,0,1-9.55-7.54l.2-.15a26.89,26.89,0,0,0,9.47,7.47c5.63,2.66,14.82,4.43,26.68-2.27l.13.21C787.66,719.46,782.23,720.68,777.63,720.68Z"/><path class="cls-4" d="M776.62,720.68a25,25,0,0,1-10.75-2.41,27.3,27.3,0,0,1-9.55-7.54l.2-.15a26.89,26.89,0,0,0,9.47,7.47c5.62,2.66,14.82,4.43,26.68-2.27l.12.21A32.66,32.66,0,0,1,776.62,720.68Z"/><path class="cls-4" d="M775.62,720.68a25,25,0,0,1-10.75-2.41,27.52,27.52,0,0,1-9.56-7.54l.2-.15a27.1,27.1,0,0,0,9.48,7.47c5.62,2.66,14.82,4.43,26.68-2.27l.12.21C785.65,719.46,780.22,720.68,775.62,720.68Z"/><path class="cls-4" d="M774.62,720.68a24.93,24.93,0,0,1-10.75-2.41,27.28,27.28,0,0,1-9.56-7.54l.2-.15a26.89,26.89,0,0,0,9.47,7.47c5.63,2.66,14.82,4.43,26.68-2.27l.13.21C784.65,719.46,779.22,720.68,774.62,720.68Z"/><path class="cls-4" d="M773.62,720.68a25,25,0,0,1-10.76-2.41,27.3,27.3,0,0,1-9.55-7.54l.2-.15a26.89,26.89,0,0,0,9.47,7.47c5.63,2.66,14.82,4.43,26.68-2.27l.13.21C783.65,719.46,778.22,720.68,773.62,720.68Z"/><path class="cls-4" d="M772.61,720.68a25,25,0,0,1-10.75-2.41,27.52,27.52,0,0,1-9.56-7.54l.21-.15a26.89,26.89,0,0,0,9.47,7.47c5.62,2.66,14.82,4.43,26.68-2.27l.12.21A32.68,32.68,0,0,1,772.61,720.68Z"/><path class="cls-4" d="M778.63,719.68a24.93,24.93,0,0,1-10.75-2.41,27.28,27.28,0,0,1-9.56-7.54l.2-.15a27.13,27.13,0,0,0,9.47,7.47c5.63,2.66,14.82,4.43,26.69-2.28l.12.22C788.66,718.46,783.23,719.68,778.63,719.68Z"/><path class="cls-4" d="M779.63,719.68a25,25,0,0,1-10.75-2.41,27.52,27.52,0,0,1-9.56-7.54l.21-.15a27,27,0,0,0,9.47,7.47c5.62,2.66,14.82,4.43,26.68-2.28l.12.22A32.68,32.68,0,0,1,779.63,719.68Z"/><path class="cls-4" d="M780.64,719.68a25,25,0,0,1-10.76-2.41,27.3,27.3,0,0,1-9.55-7.54l.2-.15a27,27,0,0,0,9.47,7.47c5.62,2.66,14.82,4.43,26.68-2.28l.12.22A32.65,32.65,0,0,1,780.64,719.68Z"/><path class="cls-4" d="M772.61,721.68a24.86,24.86,0,0,1-10.75-2.41,27.27,27.27,0,0,1-9.56-7.54l.21-.15a26.76,26.76,0,0,0,9.47,7.47c5.62,2.67,14.82,4.43,26.68-2.27l.12.22A32.76,32.76,0,0,1,772.61,721.68Z"/><path class="cls-4" d="M771.61,721.68a24.79,24.79,0,0,1-10.75-2.41,27,27,0,0,1-9.56-7.54l.2-.15a27,27,0,0,0,9.48,7.47c5.62,2.67,14.82,4.43,26.68-2.27l.12.22C781.64,720.46,776.21,721.68,771.61,721.68Z"/><path class="cls-4" d="M771.61,722.69a24.93,24.93,0,0,1-10.75-2.41,27.12,27.12,0,0,1-9.56-7.55l.2-.14a27.23,27.23,0,0,0,9.48,7.47c5.62,2.66,14.81,4.43,26.68-2.28l.12.22C781.64,721.47,776.21,722.69,771.61,722.69Z"/><path class="cls-4" d="M770.61,722.69a24.93,24.93,0,0,1-10.75-2.41,27.12,27.12,0,0,1-9.56-7.55l.2-.14a27,27,0,0,0,9.47,7.47c5.63,2.66,14.82,4.43,26.68-2.28l.13.22C780.64,721.47,775.21,722.69,770.61,722.69Z"/><path class="cls-4" d="M768.6,722.69a25,25,0,0,1-10.75-2.41,27.35,27.35,0,0,1-9.56-7.55l.21-.14a27,27,0,0,0,9.47,7.47c5.62,2.66,14.82,4.43,26.68-2.28l.12.22A32.68,32.68,0,0,1,768.6,722.69Z"/><path class="cls-4" d="M767.6,722.69a24.93,24.93,0,0,1-10.75-2.41,27.12,27.12,0,0,1-9.56-7.55l.2-.14a27.13,27.13,0,0,0,9.47,7.47c5.63,2.66,14.82,4.43,26.69-2.28l.12.22C777.63,721.47,772.2,722.69,767.6,722.69Z"/><path class="cls-4" d="M766.6,722.69a25,25,0,0,1-10.76-2.41,27.14,27.14,0,0,1-9.55-7.55l.2-.14a27,27,0,0,0,9.47,7.47c5.63,2.66,14.82,4.43,26.68-2.28l.13.22C776.63,721.47,771.2,722.69,766.6,722.69Z"/><path class="cls-4" d="M765.59,722.69a25,25,0,0,1-10.75-2.41,27.14,27.14,0,0,1-9.55-7.55l.2-.14a27,27,0,0,0,9.47,7.47c5.62,2.66,14.82,4.43,26.68-2.28l.12.22A32.66,32.66,0,0,1,765.59,722.69Z"/><path class="cls-4" d="M764.59,722.69a24.93,24.93,0,0,1-10.75-2.41,27.35,27.35,0,0,1-9.56-7.55l.2-.14a27.23,27.23,0,0,0,9.48,7.47c5.62,2.66,14.82,4.43,26.68-2.28l.12.22C774.62,721.47,769.19,722.69,764.59,722.69Z"/><path class="cls-4" d="M763.59,722.69a24.93,24.93,0,0,1-10.75-2.41,27.12,27.12,0,0,1-9.56-7.55l.2-.14a27,27,0,0,0,9.47,7.47c5.63,2.66,14.82,4.43,26.68-2.28l.13.22C773.62,721.47,768.19,722.69,763.59,722.69Z"/><path class="cls-4" d="M762.59,722.69a25,25,0,0,1-10.76-2.41,27.14,27.14,0,0,1-9.55-7.55l.2-.14a27,27,0,0,0,9.47,7.47c5.62,2.66,14.82,4.43,26.68-2.28l.12.22A32.65,32.65,0,0,1,762.59,722.69Z"/><path class="cls-4" d="M761.58,722.69a25,25,0,0,1-10.75-2.41,27.35,27.35,0,0,1-9.56-7.55l.21-.14a27,27,0,0,0,9.47,7.47c5.62,2.66,14.82,4.43,26.68-2.28l.12.22A32.66,32.66,0,0,1,761.58,722.69Z"/><path class="cls-4" d="M760.58,722.69a24.93,24.93,0,0,1-10.75-2.41,27.12,27.12,0,0,1-9.56-7.55l.2-.14a27.13,27.13,0,0,0,9.47,7.47c5.63,2.66,14.82,4.43,26.69-2.28l.12.22C770.61,721.47,765.18,722.69,760.58,722.69Z"/><path class="cls-4" d="M759.58,722.69a25,25,0,0,1-10.76-2.41,27.14,27.14,0,0,1-9.55-7.55l.2-.14a27,27,0,0,0,9.47,7.47c5.63,2.66,14.82,4.43,26.68-2.28l.13.22C769.61,721.47,764.18,722.69,759.58,722.69Z"/><path class="cls-4" d="M758.58,722.69a25,25,0,0,1-10.76-2.41,27.14,27.14,0,0,1-9.55-7.55l.2-.14a27,27,0,0,0,9.47,7.47c5.62,2.66,14.82,4.43,26.68-2.28l.12.22A32.65,32.65,0,0,1,758.58,722.69Z"/><path class="cls-4" d="M757.57,722.69a25,25,0,0,1-10.75-2.41,27.35,27.35,0,0,1-9.56-7.55l.2-.14a27.23,27.23,0,0,0,9.48,7.47c5.62,2.66,14.82,4.43,26.68-2.28l.12.22C767.6,721.47,762.17,722.69,757.57,722.69Z"/><path class="cls-4" d="M756.57,722.69a24.93,24.93,0,0,1-10.75-2.41,27.12,27.12,0,0,1-9.56-7.55l.2-.14a27.13,27.13,0,0,0,9.47,7.47c5.63,2.66,14.82,4.43,26.69-2.28l.12.22C766.6,721.47,761.17,722.69,756.57,722.69Z"/><path class="cls-4" d="M755.57,722.69a25,25,0,0,1-10.76-2.41,27.14,27.14,0,0,1-9.55-7.55l.2-.14a27,27,0,0,0,9.47,7.47c5.63,2.66,14.82,4.43,26.68-2.28l.13.22C765.6,721.47,760.17,722.69,755.57,722.69Z"/><path class="cls-4" d="M754.56,722.69a25,25,0,0,1-10.75-2.41,27.35,27.35,0,0,1-9.56-7.55l.21-.14a27,27,0,0,0,9.47,7.47c5.62,2.66,14.82,4.43,26.68-2.28l.12.22A32.66,32.66,0,0,1,754.56,722.69Z"/><path class="cls-4" d="M753.56,722.69a24.93,24.93,0,0,1-10.75-2.41,27.23,27.23,0,0,1-9.56-7.55l.2-.14a27.23,27.23,0,0,0,9.48,7.47c5.62,2.66,14.82,4.43,26.68-2.28l.12.22C763.59,721.47,758.16,722.69,753.56,722.69Z"/><path class="cls-4" d="M752.56,722.69a24.93,24.93,0,0,1-10.75-2.41,27.12,27.12,0,0,1-9.56-7.55l.2-.14a27,27,0,0,0,9.47,7.47c5.63,2.66,14.82,4.43,26.68-2.28l.13.22C762.59,721.47,757.16,722.69,752.56,722.69Z"/><path class="cls-4" d="M751.56,722.69a25,25,0,0,1-10.76-2.41,27.14,27.14,0,0,1-9.55-7.55l.2-.14a27,27,0,0,0,9.47,7.47c5.62,2.66,14.82,4.43,26.68-2.28l.12.22A32.65,32.65,0,0,1,751.56,722.69Z"/><path class="cls-4" d="M769.61,722.69a25,25,0,0,1-10.76-2.41,27.14,27.14,0,0,1-9.55-7.55l.2-.14a27,27,0,0,0,9.47,7.47c5.62,2.66,14.82,4.43,26.68-2.28l.12.22A32.65,32.65,0,0,1,769.61,722.69Z"/><path class="cls-4" d="M694.55,728l-.18-.18a55.64,55.64,0,0,0,5.52-6.69,36.9,36.9,0,0,0,5.32-10.3l.23.07a36.91,36.91,0,0,1-5.34,10.37A56.88,56.88,0,0,1,694.55,728Z"/><path class="cls-4" d="M695.62,728l-.18-.18a56.77,56.77,0,0,0,5.52-6.69,36.58,36.58,0,0,0,5.31-10.3l.24.07a36.88,36.88,0,0,1-5.35,10.38A59,59,0,0,1,695.62,728Z"/><path class="cls-4" d="M702,727.6l-.18-.18a55.64,55.64,0,0,0,5.52-6.69,36.94,36.94,0,0,0,5.32-10.31l.23.08a37.18,37.18,0,0,1-5.34,10.37A56.88,56.88,0,0,1,702,727.6Z"/><path class="cls-4" d="M700.94,727.65l-.17-.17a58,58,0,0,0,5.52-6.69,36.62,36.62,0,0,0,5.31-10.31l.24.08a37,37,0,0,1-5.35,10.37A55.25,55.25,0,0,1,700.94,727.65Z"/><path class="cls-4" d="M699.88,727.71l-.18-.17a56.77,56.77,0,0,0,5.52-6.69,36.62,36.62,0,0,0,5.31-10.31l.24.07A36.88,36.88,0,0,1,705.42,721,54.69,54.69,0,0,1,699.88,727.71Z"/><path class="cls-4" d="M698.81,727.77l-.17-.18a56.91,56.91,0,0,0,5.52-6.69,36.84,36.84,0,0,0,5.31-10.3l.24.07a36.88,36.88,0,0,1-5.35,10.38A56.23,56.23,0,0,1,698.81,727.77Z"/><path class="cls-4" d="M697.75,727.83l-.18-.18a55.77,55.77,0,0,0,5.52-6.69,36.58,36.58,0,0,0,5.31-10.3l.24.07a36.88,36.88,0,0,1-5.35,10.38A57.94,57.94,0,0,1,697.75,727.83Z"/><path class="cls-4" d="M696.68,727.89l-.18-.18A54.68,54.68,0,0,0,702,721a36.9,36.9,0,0,0,5.32-10.3l.24.07a37.41,37.41,0,0,1-5.35,10.38A57.23,57.23,0,0,1,696.68,727.89Z"/><path class="cls-4" d="M718.12,727.5l-.18-.17c.09-.1,9.28-9.59,8.14-15.7l.25,0c.49,2.63-.75,6.11-3.68,10.34A48,48,0,0,1,718.12,727.5Z"/><path class="cls-4" d="M717.11,727.5l-.18-.17c.1-.1,9.29-9.59,8.15-15.7l.25,0c.48,2.63-.75,6.11-3.68,10.34A46.28,46.28,0,0,1,717.11,727.5Z"/><path class="cls-4" d="M716.11,727.5l-.18-.17c.09-.1,9.28-9.59,8.15-15.7l.24,0c.49,2.63-.75,6.11-3.67,10.34A47.41,47.41,0,0,1,716.11,727.5Z"/><path class="cls-4" d="M715.11,727.5l-.18-.17c.09-.1,9.28-9.59,8.14-15.7l.25,0c.49,2.63-.75,6.11-3.67,10.34A47.41,47.41,0,0,1,715.11,727.5Z"/><path class="cls-4" d="M714.1,727.5l-.17-.17c.09-.1,9.28-9.59,8.14-15.7l.25,0c.49,2.63-.75,6.11-3.68,10.34A46.28,46.28,0,0,1,714.1,727.5Z"/><path class="cls-4" d="M713.1,727.5l-.18-.17c.1-.1,9.29-9.59,8.15-15.7l.25,0c.48,2.63-.75,6.11-3.68,10.34A47.41,47.41,0,0,1,713.1,727.5Z"/><path class="cls-4" d="M713.1,727.5l-.18-.17c.1-.1,9.29-9.59,8.15-15.7l.25,0c.48,2.63-.75,6.11-3.68,10.34A47.41,47.41,0,0,1,713.1,727.5Z"/><path class="cls-4" d="M712.1,727.5l-.18-.17c.09-.1,9.28-9.59,8.15-15.7l.24,0c.49,2.63-.75,6.11-3.67,10.34A47.41,47.41,0,0,1,712.1,727.5Z"/><path class="cls-4" d="M711.1,727.5l-.18-.17c.09-.1,9.28-9.59,8.14-15.7l.25,0c.49,2.63-.75,6.11-3.68,10.34A48,48,0,0,1,711.1,727.5Z"/><path class="cls-4" d="M710.09,727.5l-.18-.17c.1-.1,9.29-9.59,8.15-15.7l.25,0c.48,2.63-.75,6.11-3.68,10.34A46.28,46.28,0,0,1,710.09,727.5Z"/><path class="cls-4" d="M709.09,727.5l-.18-.17c.09-.1,9.28-9.59,8.15-15.7l.24,0c.49,2.63-.74,6.11-3.67,10.34A47.41,47.41,0,0,1,709.09,727.5Z"/><path class="cls-4" d="M708.09,727.5l-.18-.17c.09-.1,9.28-9.59,8.15-15.7l.24,0c.49,2.63-.75,6.11-3.67,10.34A47.41,47.41,0,0,1,708.09,727.5Z"/><path class="cls-4" d="M707.08,727.5l-.17-.17c.09-.1,9.28-9.59,8.14-15.7l.25,0c.49,2.63-.75,6.11-3.68,10.34A46.28,46.28,0,0,1,707.08,727.5Z"/><path class="cls-4" d="M706.08,727.5l-.18-.17c.1-.1,9.29-9.59,8.15-15.7l.25,0c.48,2.63-.75,6.11-3.68,10.34A46.28,46.28,0,0,1,706.08,727.5Z"/><path class="cls-4" d="M706.08,727.5l-.18-.17c.1-.1,9.29-9.59,8.15-15.7l.25,0c.48,2.63-.75,6.11-3.68,10.34A46.28,46.28,0,0,1,706.08,727.5Z"/><path class="cls-4" d="M705.08,727.5l-.18-.17c.09-.1,9.28-9.59,8.15-15.7l.24,0c.49,2.63-.75,6.11-3.67,10.34A47.41,47.41,0,0,1,705.08,727.5Z"/><path class="cls-4" d="M721.12,727.5l-.18-.17c.1-.1,9.29-9.59,8.15-15.7l.25,0c.48,2.63-.75,6.11-3.68,10.34A46.28,46.28,0,0,1,721.12,727.5Z"/><path class="cls-4" d="M720.12,727.5l-.18-.17c.09-.1,9.28-9.59,8.15-15.7l.24,0c.49,2.63-.74,6.11-3.67,10.34A47.41,47.41,0,0,1,720.12,727.5Z"/><path class="cls-4" d="M719.12,727.5l-.18-.17c.09-.1,9.28-9.59,8.15-15.7l.24,0c.49,2.63-.75,6.11-3.67,10.34A47.41,47.41,0,0,1,719.12,727.5Z"/><path class="cls-4" d="M725.13,727.5l-.17-.17c.09-.1,9.28-9.59,8.14-15.7l.25,0c.49,2.63-.75,6.11-3.68,10.34A46.28,46.28,0,0,1,725.13,727.5Z"/><path class="cls-4" d="M724.13,727.5l-.18-.17c.1-.1,9.29-9.59,8.15-15.7l.25,0c.48,2.63-.75,6.11-3.68,10.34A46.28,46.28,0,0,1,724.13,727.5Z"/><path class="cls-4" d="M723.13,727.5l-.18-.17c.09-.1,9.28-9.59,8.15-15.7l.24,0c.49,2.63-.75,6.11-3.67,10.34A47.41,47.41,0,0,1,723.13,727.5Z"/><path class="cls-4" d="M722.13,727.5l-.18-.17c.09-.1,9.28-9.59,8.14-15.7l.25,0c.49,2.63-.75,6.11-3.67,10.34A48.61,48.61,0,0,1,722.13,727.5Z"/><path class="cls-4" d="M733.89,740.62l-.36-.34a16.44,16.44,0,0,0,3.78-6.62,16.24,16.24,0,0,0,0-9l.49-.14a16.69,16.69,0,0,1-3.91,16.14Z"/><path class="cls-4" d="M703.89,727.51l-.16-.19c5.25-4.44,8.9-14.54,8.94-14.64l.23.09C712.87,712.87,709.19,723,703.89,727.51Z"/><polygon class="cls-4" points="705.95 754.7 621.45 774.89 619.18 775.43 620.58 781.28 707.34 760.55 705.95 754.7"/><path class="cls-4" d="M707.58,760.62l-.48-.14a6.76,6.76,0,0,1,3.19-4.43,5.86,5.86,0,0,1,4.25-.31c17.67-2.53,22.73-7.1,23.86-10.5a7.07,7.07,0,0,0-1.32-6.29,3.56,3.56,0,0,1-.61,2.41c-3.36,5.08-19.26,5.83-19.94,5.86,0,0-8,1.63-10,5a2.93,2.93,0,0,0-.34,2.42l-.47.14a3.39,3.39,0,0,1,.38-2.82c2.15-3.54,10-5.16,10.38-5.22s16.36-.77,19.58-5.65a3.17,3.17,0,0,0,.29-3.05l-.4-1.08.81.82c.15.14,3.49,3.54,2.12,7.63-1.71,5.13-9.89,8.78-24.32,10.84h-.06l-.06,0a5.41,5.41,0,0,0-3.91.27A6.28,6.28,0,0,0,707.58,760.62Z"/><path class="cls-4" d="M618.34,775.53l-.28-1c28.46-8.08,57.16-16.17,85.29-24.06l4.23-1.19.27,1-4.23,1.18C675.49,759.35,646.8,767.45,618.34,775.53Z"/><path class="cls-3" d="M1404.14,234.68c-17.89,6.57-29.07,22.44-27.85,37.14,1.62,19.52,24.62,31.18,26.15,31.93.6.3,1,.49,1.47.69,26.15,12.09,51.62,7.66,63.21,4.77a72.61,72.61,0,0,0,34.58-21.47,71.68,71.68,0,0,0,15.5-28.62c1.6-19.07-10.3-35-25-37.58-15-2.65-26.72,9.49-27.7,10.54"/><path class="cls-4" d="M1441.28,313.46a89.4,89.4,0,0,1-37.79-8.11l-.3-.14-1.19-.56c-1-.5-25-12.49-26.71-32.75-1.29-15.57,10.7-31.62,28.51-38.15l.69,1.87c-17,6.24-28.42,21.43-27.2,36.12,1.59,19.13,24.62,30.64,25.59,31.12.45.22.8.38,1.14.53l.31.14c23.57,10.9,47,8.58,62.54,4.71A70.41,70.41,0,0,0,1516.21,259c1.45-17.76-9.17-33.75-24.2-36.42-14.31-2.54-25.55,8.92-26.79,10.23l-1.46-1.37c1.31-1.39,13.26-13.56,28.6-10.83,16.07,2.85,27.42,19.83,25.84,38.65l0,.18a72.4,72.4,0,0,1-50.79,50.78A108.47,108.47,0,0,1,1441.28,313.46Z"/><path class="cls-2" d="M1253.28,424.36h4.36v30.09h14.41v3.65h-18.77Z"/><path class="cls-2" d="M1282.36,447.49l-3.5,10.61h-4.51l11.47-33.74h5.26l11.51,33.74h-4.66l-3.6-10.61Zm11.07-3.41-3.31-9.71c-.75-2.2-1.25-4.2-1.75-6.16h-.1c-.5,2-1,4.06-1.7,6.11l-3.3,9.76Z"/><path class="cls-2" d="M1306.94,452.8a15.48,15.48,0,0,0,7.81,2.2c4.46,0,7.06-2.35,7.06-5.76,0-3.15-1.8-5-6.36-6.71-5.5-1.95-8.91-4.8-8.91-9.56,0-5.26,4.36-9.16,10.92-9.16a15.39,15.39,0,0,1,7.46,1.65l-1.21,3.55a13.42,13.42,0,0,0-6.4-1.6c-4.61,0-6.36,2.76-6.36,5.06,0,3.15,2,4.71,6.71,6.51,5.7,2.2,8.61,4.95,8.61,9.91,0,5.21-3.86,9.71-11.82,9.71a17.46,17.46,0,0,1-8.61-2.15Z"/><path class="cls-2" d="M1336.58,424.36v14.12h16.32V424.36h4.41V458.1h-4.41V442.28h-16.32V458.1h-4.36V424.36Z"/><path class="cls-2" d="M1393,442.28h-13.12v12.17h14.62v3.65h-19V424.36h18.23V428h-13.87v10.67H1393Z"/><path class="cls-2" d="M1418.58,458.1l-4.31-7.46c-1.75-2.85-2.85-4.7-3.9-6.66h-.1c-1,2-1.91,3.76-3.66,6.71l-4,7.41h-5L1407.86,441,1398,424.36H1403l4.45,7.91c1.25,2.2,2.21,3.9,3.11,5.71h.15c1-2,1.8-3.56,3-5.71l4.61-7.91h5l-10.26,16.42,10.51,17.32Z"/><path class="cls-2" d="M1435.5,428.06h-10.27v-3.7h25v3.7H1439.9v30h-4.4Z"/><path class="cls-2" d="M1471.44,442.28h-13.12v12.17h14.62v3.65h-19V424.36h18.22V428h-13.87v10.67h13.12Z"/><path class="cls-2" d="M1478.59,458.1V424.36h4.76l10.82,17.07a96.32,96.32,0,0,1,6,11l.1-.05c-.4-4.5-.5-8.61-.5-13.86V424.36h4.11V458.1h-4.41L1488.81,441a107.22,107.22,0,0,1-6.31-11.26l-.15,0c.25,4.25.35,8.31.35,13.91V458.1Z"/><path class="cls-2" d="M1510.93,452.8a15.48,15.48,0,0,0,7.81,2.2c4.46,0,7.06-2.35,7.06-5.76,0-3.15-1.8-5-6.36-6.71-5.5-1.95-8.91-4.8-8.91-9.56,0-5.26,4.36-9.16,10.92-9.16a15.39,15.39,0,0,1,7.46,1.65l-1.2,3.55a13.51,13.51,0,0,0-6.41-1.6c-4.61,0-6.36,2.76-6.36,5.06,0,3.15,2,4.71,6.71,6.51,5.7,2.2,8.61,4.95,8.61,9.91,0,5.21-3.86,9.71-11.82,9.71a17.46,17.46,0,0,1-8.61-2.15Z"/><path class="cls-2" d="M1540.57,424.36V458.1h-4.36V424.36Z"/><path class="cls-2" d="M1577,440.88c0,11.61-7,17.77-15.67,17.77-8.91,0-15.17-6.91-15.17-17.12,0-10.71,6.66-17.72,15.67-17.72C1571.06,423.81,1577,430.87,1577,440.88Zm-26.18.55c0,7.21,3.91,13.67,10.76,13.67s10.82-6.36,10.82-14c0-6.71-3.51-13.72-10.77-13.72S1550.83,434,1550.83,441.43Z"/><path class="cls-2" d="M1582.67,458.1V424.36h4.75l10.82,17.07a98.09,98.09,0,0,1,6.06,11l.1-.05c-.4-4.5-.5-8.61-.5-13.86V424.36h4.1V458.1h-4.41L1592.88,441a109.05,109.05,0,0,1-6.31-11.26l-.15,0c.25,4.25.35,8.31.35,13.91V458.1Z"/><path class="cls-2" d="M1430.84,393.36c-86.86,0-157.52-70.66-157.52-157.52S1344,78.33,1430.84,78.33,1588.35,149,1588.35,235.84,1517.69,393.36,1430.84,393.36Zm0-311c-84.65,0-153.52,68.87-153.52,153.51s68.87,153.52,153.52,153.52,153.51-68.87,153.51-153.52S1515.49,82.33,1430.84,82.33Z"/><path class="cls-4" d="M1381.78,186.79a6.48,6.48,0,0,1-6.34-5.13l-1.52-7.13a6.5,6.5,0,0,1,5-7.68l64.67-13.74a6.34,6.34,0,0,1,4.57.73l69.74,29.44-67.7-11.87-67,15.24A7,7,0,0,1,1381.78,186.79ZM1444.92,156a2.94,2.94,0,0,0-.72.08l-64.67,13.74a3.49,3.49,0,0,0-2.68,4.12l1.52,7.13a3.49,3.49,0,0,0,4.12,2.68l67.61-15.37,42.25,7.4-45.67-19.29A3.44,3.44,0,0,0,1444.92,156Z"/><path class="cls-4" d="M1404.31,217.91l-3.5-1.94a39.82,39.82,0,0,1,24.75-17.76c15.25-3.57,32.92,1.49,52.5,15l-2.28,3.28c-18.58-12.86-35.15-17.72-49.24-14.45A36.4,36.4,0,0,0,1404.31,217.91Z"/><path class="cls-4" d="M1400,232.73s53,4.19,76.91-14.21C1476.92,218.52,1464.19,250,1400,232.73Z"/><path class="cls-4" d="M1485.51,239.63a25.4,25.4,0,0,1-10.92-2.44,27.79,27.79,0,0,1-9.71-7.67l.21-.14a27.45,27.45,0,0,0,9.62,7.59c5.71,2.7,15,4.5,27.11-2.31l.12.21A33.14,33.14,0,0,1,1485.51,239.63Z"/><path class="cls-4" d="M1485.51,238.61a25.4,25.4,0,0,1-10.92-2.44,27.83,27.83,0,0,1-9.71-7.66l.21-.15a27.32,27.32,0,0,0,9.62,7.59c5.71,2.7,15,4.5,27.11-2.31l.12.21A33.14,33.14,0,0,1,1485.51,238.61Z"/><path class="cls-4" d="M1484.5,239.63a25.41,25.41,0,0,1-10.93-2.44,27.57,27.57,0,0,1-9.7-7.67l.2-.14a27.45,27.45,0,0,0,9.62,7.59c5.71,2.7,15.06,4.5,27.11-2.31l.12.21A33.13,33.13,0,0,1,1484.5,239.63Z"/><path class="cls-4" d="M1483.48,239.63a25.41,25.41,0,0,1-10.93-2.44,27.57,27.57,0,0,1-9.7-7.67l.2-.14a27.45,27.45,0,0,0,9.62,7.59c5.71,2.7,15.06,4.5,27.11-2.31l.12.21A33.13,33.13,0,0,1,1483.48,239.63Z"/><path class="cls-4" d="M1483.48,241.67a25.26,25.26,0,0,1-10.93-2.45,27.49,27.49,0,0,1-9.7-7.66l.2-.14a27.36,27.36,0,0,0,9.62,7.58c5.72,2.71,15.06,4.5,27.11-2.31l.12.22C1493.67,240.43,1488.15,241.67,1483.48,241.67Z"/><path class="cls-4" d="M1483.48,240.65a25.41,25.41,0,0,1-10.93-2.44,27.57,27.57,0,0,1-9.7-7.67l.2-.14a27.36,27.36,0,0,0,9.62,7.58c5.71,2.71,15.06,4.51,27.11-2.31l.12.22A33.13,33.13,0,0,1,1483.48,240.65Z"/><path class="cls-4" d="M1481.44,241.67a25.21,25.21,0,0,1-10.92-2.45,27.58,27.58,0,0,1-9.71-7.66l.2-.14a27.48,27.48,0,0,0,9.62,7.58c5.72,2.71,15.06,4.5,27.11-2.31l.12.22C1491.63,240.43,1486.11,241.67,1481.44,241.67Z"/><path class="cls-4" d="M1482.46,241.67a25.21,25.21,0,0,1-10.92-2.45,27.58,27.58,0,0,1-9.71-7.66l.2-.14a27.48,27.48,0,0,0,9.62,7.58c5.72,2.71,15.06,4.5,27.11-2.31l.12.22C1492.65,240.43,1487.13,241.67,1482.46,241.67Z"/><path class="cls-4" d="M1478.38,242.69a25.25,25.25,0,0,1-10.92-2.45,27.7,27.7,0,0,1-9.71-7.66l.21-.15a27.2,27.2,0,0,0,9.62,7.59c5.71,2.71,15.05,4.5,27.1-2.31l.13.22C1488.58,241.45,1483.06,242.69,1478.38,242.69Z"/><path class="cls-4" d="M1478.38,243.71a25.39,25.39,0,0,1-10.92-2.45,27.7,27.7,0,0,1-9.71-7.66l.21-.15a27.2,27.2,0,0,0,9.62,7.59c5.71,2.71,15.05,4.5,27.1-2.31l.13.22C1488.58,242.47,1483.06,243.71,1478.38,243.71Z"/><path class="cls-4" d="M1477.37,243.71a25.4,25.4,0,0,1-10.93-2.45,27.7,27.7,0,0,1-9.71-7.66l.21-.15a27.2,27.2,0,0,0,9.62,7.59c5.71,2.71,15.06,4.5,27.11-2.31l.12.22C1487.56,242.47,1482,243.71,1477.37,243.71Z"/><path class="cls-4" d="M1476.35,243.71a25.4,25.4,0,0,1-10.93-2.45,27.49,27.49,0,0,1-9.7-7.66l.2-.15a27.2,27.2,0,0,0,9.62,7.59c5.71,2.71,15.06,4.5,27.11-2.31l.12.22C1486.54,242.47,1481,243.71,1476.35,243.71Z"/><path class="cls-4" d="M1475.33,243.71a25.32,25.32,0,0,1-10.92-2.45,27.47,27.47,0,0,1-9.71-7.66l.2-.15a27.32,27.32,0,0,0,9.62,7.59c5.72,2.71,15.06,4.5,27.11-2.31l.12.22C1485.52,242.47,1480,243.71,1475.33,243.71Z"/><path class="cls-4" d="M1474.31,243.71a25.36,25.36,0,0,1-10.92-2.45,27.58,27.58,0,0,1-9.71-7.66l.2-.15a27.43,27.43,0,0,0,9.62,7.59c5.72,2.71,15.06,4.5,27.11-2.31l.12.22C1484.5,242.47,1479,243.71,1474.31,243.71Z"/><path class="cls-4" d="M1473.29,243.71a25.36,25.36,0,0,1-10.92-2.45,27.58,27.58,0,0,1-9.71-7.66l.2-.15a27.43,27.43,0,0,0,9.62,7.59c5.72,2.71,15.06,4.5,27.11-2.31l.12.22C1483.48,242.47,1478,243.71,1473.29,243.71Z"/><path class="cls-4" d="M1479.4,242.69a25.21,25.21,0,0,1-10.92-2.45,27.7,27.7,0,0,1-9.71-7.66l.2-.15a27.41,27.41,0,0,0,9.63,7.59c5.71,2.71,15.05,4.5,27.1-2.31l.13.22C1489.59,241.45,1484.08,242.69,1479.4,242.69Z"/><path class="cls-4" d="M1480.42,242.69a25.21,25.21,0,0,1-10.92-2.45,27.58,27.58,0,0,1-9.71-7.66l.2-.15a27.41,27.41,0,0,0,9.63,7.59c5.71,2.71,15.05,4.5,27.1-2.31l.12.22C1490.61,241.45,1485.09,242.69,1480.42,242.69Z"/><path class="cls-4" d="M1481.44,242.69a25.21,25.21,0,0,1-10.92-2.45,27.58,27.58,0,0,1-9.71-7.66l.2-.15a27.32,27.32,0,0,0,9.62,7.59c5.72,2.71,15.06,4.5,27.11-2.31l.12.22C1491.63,241.45,1486.11,242.69,1481.44,242.69Z"/><path class="cls-4" d="M1473.29,244.73a25.36,25.36,0,0,1-10.92-2.45,27.58,27.58,0,0,1-9.71-7.66l.2-.15a27.56,27.56,0,0,0,9.62,7.59c5.72,2.7,15.06,4.5,27.11-2.31l.12.22C1483.48,243.49,1478,244.73,1473.29,244.73Z"/><path class="cls-4" d="M1472.27,244.73a25.36,25.36,0,0,1-10.92-2.45,27.58,27.58,0,0,1-9.71-7.66l.2-.15a27.54,27.54,0,0,0,9.63,7.59c5.71,2.71,15,4.5,27.1-2.31l.13.22C1482.46,243.49,1477,244.73,1472.27,244.73Z"/><path class="cls-4" d="M1472.27,245.75a25.36,25.36,0,0,1-10.92-2.45,27.71,27.71,0,0,1-9.71-7.66l.2-.15a27.54,27.54,0,0,0,9.63,7.59c5.71,2.7,15,4.5,27.1-2.31l.13.22C1482.46,244.51,1477,245.75,1472.27,245.75Z"/><path class="cls-4" d="M1471.25,245.75a25.39,25.39,0,0,1-10.92-2.45,27.83,27.83,0,0,1-9.71-7.66l.21-.15a27.32,27.32,0,0,0,9.62,7.59c5.71,2.7,15,4.5,27.1-2.31l.13.22C1481.44,244.51,1475.93,245.75,1471.25,245.75Z"/><path class="cls-4" d="M1469.22,245.75a25.4,25.4,0,0,1-10.93-2.45,27.83,27.83,0,0,1-9.71-7.66l.21-.15a27.32,27.32,0,0,0,9.62,7.59c5.71,2.7,15,4.5,27.11-2.31l.12.22C1479.41,244.51,1473.89,245.75,1469.22,245.75Z"/><path class="cls-4" d="M1468.2,245.75a25.4,25.4,0,0,1-10.93-2.45,27.61,27.61,0,0,1-9.7-7.66l.2-.15a27.32,27.32,0,0,0,9.62,7.59c5.72,2.7,15.06,4.5,27.11-2.31l.12.22C1478.39,244.51,1472.87,245.75,1468.2,245.75Z"/><path class="cls-4" d="M1467.18,245.75a25.36,25.36,0,0,1-10.92-2.45,27.59,27.59,0,0,1-9.71-7.66l.2-.15a27.44,27.44,0,0,0,9.62,7.59c5.72,2.7,15.06,4.5,27.11-2.31l.12.22C1477.37,244.51,1471.85,245.75,1467.18,245.75Z"/><path class="cls-4" d="M1466.16,245.75a25.36,25.36,0,0,1-10.92-2.45,27.71,27.71,0,0,1-9.71-7.66l.2-.15a27.56,27.56,0,0,0,9.62,7.59c5.72,2.7,15.06,4.5,27.11-2.31l.12.22C1476.35,244.51,1470.83,245.75,1466.16,245.75Z"/><path class="cls-4" d="M1465.14,245.75a25.36,25.36,0,0,1-10.92-2.45,27.71,27.71,0,0,1-9.71-7.66l.2-.15a27.56,27.56,0,0,0,9.62,7.59c5.72,2.7,15.06,4.5,27.11-2.31l.12.22C1475.33,244.51,1469.81,245.75,1465.14,245.75Z"/><path class="cls-4" d="M1464.12,245.75a25.39,25.39,0,0,1-10.92-2.45,27.83,27.83,0,0,1-9.71-7.66l.2-.15a27.54,27.54,0,0,0,9.63,7.59c5.71,2.7,15,4.5,27.1-2.31l.13.22C1474.31,244.51,1468.8,245.75,1464.12,245.75Z"/><path class="cls-4" d="M1463.1,245.75a25.39,25.39,0,0,1-10.92-2.45,27.83,27.83,0,0,1-9.71-7.66l.21-.15a27.32,27.32,0,0,0,9.62,7.59c5.71,2.7,15,4.5,27.1-2.31l.13.22C1473.29,244.51,1467.78,245.75,1463.1,245.75Z"/><path class="cls-4" d="M1462.08,245.75a25.39,25.39,0,0,1-10.92-2.45,27.83,27.83,0,0,1-9.71-7.66l.21-.15a27.32,27.32,0,0,0,9.62,7.59c5.71,2.7,15,4.5,27.11-2.31l.12.22C1472.28,244.51,1466.76,245.75,1462.08,245.75Z"/><path class="cls-4" d="M1461.07,245.75a25.4,25.4,0,0,1-10.93-2.45,27.61,27.61,0,0,1-9.7-7.66l.2-.15a27.32,27.32,0,0,0,9.62,7.59c5.71,2.7,15.06,4.5,27.11-2.31l.12.22C1471.26,244.51,1465.74,245.75,1461.07,245.75Z"/><path class="cls-4" d="M1460.05,245.75a25.4,25.4,0,0,1-10.93-2.45,27.61,27.61,0,0,1-9.7-7.66l.2-.15a27.32,27.32,0,0,0,9.62,7.59c5.72,2.7,15.06,4.5,27.11-2.31l.12.22C1470.24,244.51,1464.72,245.75,1460.05,245.75Z"/><path class="cls-4" d="M1459,245.75a25.36,25.36,0,0,1-10.92-2.45,27.71,27.71,0,0,1-9.71-7.66l.2-.15a27.44,27.44,0,0,0,9.62,7.59c5.72,2.7,15.06,4.5,27.11-2.31l.12.22C1469.22,244.51,1463.7,245.75,1459,245.75Z"/><path class="cls-4" d="M1458,245.75a25.36,25.36,0,0,1-10.92-2.45,27.71,27.71,0,0,1-9.71-7.66l.2-.15a27.54,27.54,0,0,0,9.63,7.59c5.71,2.7,15,4.5,27.1-2.31l.12.22C1468.2,244.51,1462.68,245.75,1458,245.75Z"/><path class="cls-4" d="M1457,245.75a25.36,25.36,0,0,1-10.92-2.45,27.83,27.83,0,0,1-9.71-7.66l.2-.15a27.54,27.54,0,0,0,9.63,7.59c5.71,2.7,15,4.5,27.1-2.31l.13.22C1467.18,244.51,1461.67,245.75,1457,245.75Z"/><path class="cls-4" d="M1456,245.75a25.39,25.39,0,0,1-10.92-2.45,27.83,27.83,0,0,1-9.71-7.66l.2-.15a27.54,27.54,0,0,0,9.63,7.59c5.71,2.7,15.06,4.5,27.1-2.31l.13.22C1466.16,244.51,1460.65,245.75,1456,245.75Z"/><path class="cls-4" d="M1455,245.75A25.39,25.39,0,0,1,1444,243.3a27.83,27.83,0,0,1-9.71-7.66l.21-.15a27.32,27.32,0,0,0,9.62,7.59c5.71,2.7,15,4.5,27.1-2.31l.13.22C1465.15,244.51,1459.63,245.75,1455,245.75Z"/><path class="cls-4" d="M1453.94,245.75A25.4,25.4,0,0,1,1443,243.3a27.83,27.83,0,0,1-9.71-7.66l.21-.15a27.32,27.32,0,0,0,9.62,7.59c5.71,2.7,15,4.5,27.11-2.31l.12.22C1464.13,244.51,1458.61,245.75,1453.94,245.75Z"/><path class="cls-4" d="M1452.92,245.75A25.4,25.4,0,0,1,1442,243.3a27.61,27.61,0,0,1-9.7-7.66l.2-.15a27.32,27.32,0,0,0,9.62,7.59c5.72,2.7,15.06,4.5,27.11-2.31l.12.22C1463.11,244.51,1457.59,245.75,1452.92,245.75Z"/><path class="cls-4" d="M1451.9,245.75A25.36,25.36,0,0,1,1441,243.3a27.59,27.59,0,0,1-9.71-7.66l.2-.15a27.44,27.44,0,0,0,9.62,7.59c5.72,2.7,15.06,4.5,27.11-2.31l.12.22C1462.09,244.51,1456.57,245.75,1451.9,245.75Z"/><path class="cls-4" d="M1470.23,245.75a25.39,25.39,0,0,1-10.92-2.45,27.83,27.83,0,0,1-9.71-7.66l.21-.15a27.32,27.32,0,0,0,9.62,7.59c5.71,2.7,15,4.5,27.11-2.31l.12.22C1480.43,244.51,1474.91,245.75,1470.23,245.75Z"/><path class="cls-4" d="M1394,251.15l-.18-.17a57.58,57.58,0,0,0,5.61-6.8,37.35,37.35,0,0,0,5.39-10.47l.24.07a37.21,37.21,0,0,1-5.43,10.54A58.74,58.74,0,0,1,1394,251.15Z"/><path class="cls-4" d="M1395.07,251.09l-.18-.17a57.58,57.58,0,0,0,5.61-6.8,37.4,37.4,0,0,0,5.4-10.47l.24.07a37.52,37.52,0,0,1-5.44,10.54A57.58,57.58,0,0,1,1395.07,251.09Z"/><path class="cls-4" d="M1401.56,250.73l-.17-.17a58.13,58.13,0,0,0,5.6-6.8,37,37,0,0,0,5.4-10.47l.24.08a37.6,37.6,0,0,1-5.43,10.54A56.41,56.41,0,0,1,1401.56,250.73Z"/><path class="cls-4" d="M1400.48,250.79l-.17-.17a59.34,59.34,0,0,0,5.6-6.8,37.27,37.27,0,0,0,5.4-10.47l.24.07a37.74,37.74,0,0,1-5.43,10.54A57.17,57.17,0,0,1,1400.48,250.79Z"/><path class="cls-4" d="M1399.4,250.85l-.18-.17a57.58,57.58,0,0,0,5.61-6.8,37.27,37.27,0,0,0,5.4-10.47l.24.07A37.52,37.52,0,0,1,1405,244,56.59,56.59,0,0,1,1399.4,250.85Z"/><path class="cls-4" d="M1398.32,250.91l-.18-.17a57.58,57.58,0,0,0,5.61-6.8,37,37,0,0,0,5.39-10.47l.24.07a37.21,37.21,0,0,1-5.43,10.54A57.72,57.72,0,0,1,1398.32,250.91Z"/><path class="cls-4" d="M1397.23,251l-.17-.17a59.34,59.34,0,0,0,5.6-6.8,37.14,37.14,0,0,0,5.4-10.47l.24.07a37.47,37.47,0,0,1-5.43,10.54A56.07,56.07,0,0,1,1397.23,251Z"/><path class="cls-4" d="M1396.15,251l-.18-.17a57.58,57.58,0,0,0,5.61-6.8,37.27,37.27,0,0,0,5.4-10.47l.24.07a37.74,37.74,0,0,1-5.43,10.54A58.18,58.18,0,0,1,1396.15,251Z"/><path class="cls-4" d="M1417.93,250.64l-.18-.17c.09-.1,9.43-9.74,8.27-16l.25,0c.49,2.66-.76,6.2-3.73,10.5A49,49,0,0,1,1417.93,250.64Z"/><path class="cls-4" d="M1416.91,250.64l-.18-.17c.09-.1,9.43-9.74,8.27-16l.25,0c.5,2.66-.76,6.2-3.73,10.5A49,49,0,0,1,1416.91,250.64Z"/><path class="cls-4" d="M1415.89,250.64l-.18-.17c.09-.1,9.43-9.74,8.28-16l.24,0c.5,2.66-.76,6.2-3.73,10.5A49,49,0,0,1,1415.89,250.64Z"/><path class="cls-4" d="M1414.87,250.64l-.18-.17c.1-.1,9.43-9.74,8.28-16l.24,0c.5,2.66-.76,6.2-3.73,10.5A47.86,47.86,0,0,1,1414.87,250.64Z"/><path class="cls-4" d="M1413.85,250.64l-.18-.17c.1-.1,9.43-9.74,8.28-16l.24,0c.5,2.66-.76,6.2-3.73,10.5A46.74,46.74,0,0,1,1413.85,250.64Z"/><path class="cls-4" d="M1412.83,250.64l-.18-.17c.1-.1,9.43-9.74,8.28-16l.25,0c.49,2.66-.76,6.2-3.74,10.5A46.74,46.74,0,0,1,1412.83,250.64Z"/><path class="cls-4" d="M1412.83,250.64l-.18-.17c.1-.1,9.43-9.74,8.28-16l.25,0c.49,2.66-.76,6.2-3.74,10.5A46.74,46.74,0,0,1,1412.83,250.64Z"/><path class="cls-4" d="M1411.81,250.64l-.18-.17c.1-.1,9.44-9.74,8.28-16l.25,0c.49,2.66-.76,6.2-3.74,10.5A46.74,46.74,0,0,1,1411.81,250.64Z"/><path class="cls-4" d="M1410.8,250.64l-.18-.17c.09-.1,9.43-9.74,8.27-16l.25,0c.49,2.66-.76,6.2-3.73,10.5A49,49,0,0,1,1410.8,250.64Z"/><path class="cls-4" d="M1409.78,250.64l-.18-.17c.09-.1,9.43-9.74,8.27-16l.25,0c.5,2.66-.76,6.2-3.73,10.5A49,49,0,0,1,1409.78,250.64Z"/><path class="cls-4" d="M1408.76,250.64l-.18-.17c.09-.1,9.43-9.74,8.28-16l.24,0c.5,2.66-.76,6.2-3.73,10.5A49,49,0,0,1,1408.76,250.64Z"/><path class="cls-4" d="M1407.74,250.64l-.18-.17c.09-.1,9.43-9.74,8.28-16l.24,0c.5,2.66-.76,6.2-3.73,10.5A49,49,0,0,1,1407.74,250.64Z"/><path class="cls-4" d="M1406.72,250.64l-.18-.17c.1-.1,9.43-9.74,8.28-16l.24,0c.5,2.66-.76,6.2-3.73,10.5A47.86,47.86,0,0,1,1406.72,250.64Z"/><path class="cls-4" d="M1405.7,250.64l-.18-.17c.1-.1,9.43-9.74,8.28-16l.24,0c.5,2.66-.76,6.2-3.73,10.5A46.74,46.74,0,0,1,1405.7,250.64Z"/><path class="cls-4" d="M1405.7,250.64l-.18-.17c.1-.1,9.43-9.74,8.28-16l.24,0c.5,2.66-.76,6.2-3.73,10.5A46.74,46.74,0,0,1,1405.7,250.64Z"/><path class="cls-4" d="M1404.68,250.64l-.18-.17c.1-.1,9.43-9.74,8.28-16l.25,0c.49,2.66-.76,6.2-3.74,10.5A46.74,46.74,0,0,1,1404.68,250.64Z"/><path class="cls-4" d="M1421,250.64l-.18-.17c.1-.1,9.43-9.74,8.28-16l.25,0c.49,2.66-.77,6.2-3.74,10.5A46.74,46.74,0,0,1,1421,250.64Z"/><path class="cls-4" d="M1420,250.64l-.18-.17c.1-.1,9.43-9.74,8.28-16l.25,0c.49,2.66-.76,6.2-3.74,10.5A46.74,46.74,0,0,1,1420,250.64Z"/><path class="cls-4" d="M1419,250.64l-.18-.17c.09-.1,9.43-9.74,8.27-16l.25,0c.49,2.66-.76,6.2-3.74,10.5A48.38,48.38,0,0,1,1419,250.64Z"/><path class="cls-4" d="M1425.06,250.64l-.18-.17c.09-.1,9.43-9.74,8.27-16l.25,0c.5,2.66-.76,6.2-3.73,10.5A49,49,0,0,1,1425.06,250.64Z"/><path class="cls-4" d="M1424,250.64l-.18-.17c.09-.1,9.43-9.74,8.28-16l.24,0c.5,2.66-.76,6.2-3.73,10.5A49,49,0,0,1,1424,250.64Z"/><path class="cls-4" d="M1423,250.64l-.18-.17c.09-.1,9.43-9.74,8.28-16l.24,0c.5,2.66-.76,6.2-3.73,10.5A49,49,0,0,1,1423,250.64Z"/><path class="cls-4" d="M1422,250.64l-.18-.17c.1-.1,9.43-9.74,8.28-16l.24,0c.5,2.66-.76,6.2-3.73,10.5A47.86,47.86,0,0,1,1422,250.64Z"/><path class="cls-4" d="M1434,264l-.36-.35a16.46,16.46,0,0,0,3.85-15.91l.48-.14a17,17,0,0,1-4,16.4Z"/><path class="cls-4" d="M1403.47,250.65l-.16-.19c5.34-4.51,9-14.77,9.08-14.87l.24.08C1412.59,235.78,1408.86,246.1,1403.47,250.65Z"/><polygon class="cls-4" points="1404.67 279.1 1319.23 299.52 1316.93 300.07 1318.35 305.99 1406.09 285.02 1404.67 279.1"/><path class="cls-4" d="M1407.22,284.28l-.48-.13a6.87,6.87,0,0,1,3.24-4.5,5.93,5.93,0,0,1,4.31-.32c18-2.57,23.1-7.22,24.25-10.67a7.21,7.21,0,0,0-1.36-6.41,3.58,3.58,0,0,1-.61,2.46c-3.42,5.17-19.57,5.93-20.25,6,0,0-8.11,1.66-10.18,5.06a3,3,0,0,0-.34,2.47l-.48.14a3.45,3.45,0,0,1,.4-2.86c2.18-3.6,10.2-5.24,10.54-5.31s16.62-.78,19.89-5.73a3.21,3.21,0,0,0,.3-3.1l-.41-1.08.82.81c.14.15,3.53,3.6,2.15,7.75-1.74,5.21-10,8.92-24.7,11h-.06l-.06,0a5.54,5.54,0,0,0-4,.27A6.43,6.43,0,0,0,1407.22,284.28Z"/><path class="cls-4" d="M1316,300l-.2-.73c28.72-8.15,57.74-16.34,86.24-24.33l4.28-1.2.21.72-4.28,1.2C1373.78,283.7,1344.77,291.88,1316,300Z"/><polyline class="cls-3" points="501.81 118.13 504.14 136.77 537.68 136.77 539.1 118.13"/><polygon class="cls-2" points="539.08 138.27 502.82 138.27 500.33 118.32 503.3 117.94 505.47 135.27 536.29 135.27 537.6 118.02 540.59 118.24 539.08 138.27"/><path class="cls-2" d="M399.45,458a31.65,31.65,0,0,1-10.4,1.86c-5.12,0-9.35-1.31-12.66-4.47-2.92-2.82-4.73-7.34-4.73-12.62.06-10.1,7-17.48,18.35-17.48a21.07,21.07,0,0,1,8.44,1.55l-1.06,3.57A17.64,17.64,0,0,0,389.9,429c-8.24,0-13.61,5.12-13.61,13.61s5.17,13.67,13.06,13.67a14.07,14.07,0,0,0,5.83-.91V445.24H388.3v-3.52h11.15Z"/><path class="cls-2" d="M423.68,443.63H410.51v12.21h14.67v3.67h-19V425.64h18.29v3.67H410.51V440h13.17Z"/><path class="cls-2" d="M430.86,425.64h4.37v30.2h14.48v3.67H430.86Z"/><path class="cls-2" d="M472.12,443.63H459v12.21h14.68v3.67H454.58V425.64h18.29v3.67H459V440h13.17Z"/><path class="cls-2" d="M490,459.51V425.64h4.77l10.86,17.13a96.39,96.39,0,0,1,6.08,11l.1,0c-.41-4.53-.5-8.65-.5-13.92V425.64h4.12v33.87H511l-10.75-17.19a109,109,0,0,1-6.33-11.3l-.15.05c.25,4.27.35,8.34.35,14v14.48Z"/><path class="cls-2" d="M540.56,443.63H527.4v12.21h14.67v3.67H523V425.64h18.29v3.67H527.4V440h13.16Z"/><path class="cls-2" d="M573.53,458a31.65,31.65,0,0,1-10.4,1.86c-5.13,0-9.35-1.31-12.67-4.47-2.91-2.82-4.72-7.34-4.72-12.62,0-10.1,7-17.48,18.34-17.48a21,21,0,0,1,8.44,1.55l-1,3.57A17.64,17.64,0,0,0,564,429c-8.24,0-13.62,5.12-13.62,13.61s5.18,13.67,13.07,13.67a14.14,14.14,0,0,0,5.83-.91V445.24h-6.89v-3.52h11.16Z"/><path class="cls-2" d="M580.21,425.64h4.38v30.2h14.47v3.67H580.21Z"/><path class="cls-2" d="M621.47,443.63H608.3v12.21H623v3.67H603.93V425.64h18.29v3.67H608.3V440h13.17Z"/><path class="cls-2" d="M494.82,400.24c-87.46,0-158.61-71.15-158.61-158.61S407.36,83,494.82,83s158.62,71.15,158.62,158.62S582.29,400.24,494.82,400.24Zm0-312.23c-84.7,0-153.61,68.91-153.61,153.62s68.91,153.61,153.61,153.61,153.62-68.91,153.62-153.61S579.53,88,494.82,88Z"/><path class="cls-3" d="M539.1,248.62v116.5H450.55V248.62a42,42,0,0,1,.26-4.66,44.28,44.28,0,0,1,88.29,4.66Z"/><path class="cls-2" d="M540.6,366.62H449.05v-118a44.77,44.77,0,0,1,.27-4.82,45.76,45.76,0,0,1,91,0,44.77,44.77,0,0,1,.27,4.82Zm-88.55-3H537.6v-115a41.71,41.71,0,0,0-.25-4.51,42.76,42.76,0,0,0-85.05,0,41.71,41.71,0,0,0-.25,4.51Z"/><path class="cls-3" d="M466.85,271.18l-.21-70.71a5.31,5.31,0,0,1,5.29-5.33l47.15-.14a5.31,5.31,0,0,1,5.33,5.3l.21,70.7a25.35,25.35,0,0,1-.16,3,28.88,28.88,0,0,1-57.43.18A27.87,27.87,0,0,1,466.85,271.18Z"/><path class="cls-2" d="M495.73,301.47a30.29,30.29,0,0,1-30.2-27.09,29.7,29.7,0,0,1-.18-3.2h0l-.21-70.71a6.71,6.71,0,0,1,2-4.82,6.78,6.78,0,0,1,4.81-2l47.15-.14h0a6.81,6.81,0,0,1,6.81,6.79l.21,70.71a29.55,29.55,0,0,1-.16,3.2,30.29,30.29,0,0,1-30.13,27.27Zm-27.38-30.3a26.41,26.41,0,0,0,.17,2.88,27.29,27.29,0,0,0,27.21,24.42h.09A27.3,27.3,0,0,0,523,273.89a26.24,26.24,0,0,0,.15-2.88l-.21-70.71a3.77,3.77,0,0,0-1.12-2.69,4,4,0,0,0-2.7-1.11l-47.15.14a3.81,3.81,0,0,0-3.8,3.82Z"/><rect class="cls-3" x="513.46" y="136.77" width="16.31" height="44.27"/><path class="cls-2" d="M531.28,182.54H512V135.27h19.32Zm-16.32-3h13.32V138.27H515Z"/><path class="cls-3" d="M521.62,181s-47.77-8.1,0,70.52"/><path class="cls-2" d="M520.34,252.33c-19.73-32.46-25.9-54.58-18.33-65.72,6.27-9.23,19.31-7.14,19.86-7.05l-.5,3,.25-1.48-.25,1.48c-.12,0-11.71-1.85-16.88,5.78-4.7,6.95-5.32,23.42,18.41,62.48Z"/><path class="cls-3" d="M521.36,251.56c.87-1.43,1.7-2.83,2.51-4.2,43.54-74.13-2.51-66.32-2.51-66.32"/><path class="cls-2" d="M522.64,252.34l-2.56-1.56c.86-1.42,1.7-2.82,2.5-4.18,21.33-36.33,20.4-51.8,15.85-58.39-5.21-7.56-16.7-5.71-16.82-5.69l-.5-3c.55-.09,13.5-2.17,19.79,6.95,7.33,10.62,2,31.35-15.74,61.61C524.35,249.5,523.51,250.9,522.64,252.34Z"/><line class="cls-3" x1="532.02" y1="181.87" x2="502.78" y2="212.43"/><rect class="cls-2" x="496.25" y="197.02" width="42.29" height="0.25" transform="translate(17.26 434.71) rotate(-46.27)"/><line class="cls-3" x1="537.24" y1="184.72" x2="504.8" y2="218.42"/><polygon class="cls-2" points="504.89 218.51 504.71 218.34 537.15 184.63 537.33 184.8 504.89 218.51"/><line class="cls-3" x1="540.15" y1="188.12" x2="506.58" y2="222.89"/><polygon class="cls-2" points="506.67 222.98 506.49 222.81 540.06 188.03 540.24 188.21 506.67 222.98"/><line class="cls-3" x1="511.01" y1="232.5" x2="542.59" y2="200.25"/><rect class="cls-2" x="504.23" y="216.25" width="45.14" height="0.25" transform="translate(3.76 441.67) rotate(-45.63)"/><line class="cls-3" x1="508.25" y1="226.71" x2="542.07" y2="193.14"/><polygon class="cls-2" points="508.34 226.8 508.16 226.62 541.98 193.05 542.16 193.23 508.34 226.8"/><line class="cls-3" x1="513.46" y1="237.28" x2="541.23" y2="208.59"/><rect class="cls-2" x="507.39" y="222.81" width="39.92" height="0.25" transform="translate(0.46 446.95) rotate(-45.95)"/><line class="cls-3" x1="515.81" y1="241.59" x2="537.88" y2="219.21"/><polygon class="cls-2" points="515.9 241.68 515.73 241.51 537.79 219.12 537.97 219.3 515.9 241.68"/><line class="cls-3" x1="518.05" y1="245.54" x2="532.02" y2="231.84"/><polygon class="cls-2" points="518.14 245.63 517.97 245.45 531.93 231.75 532.1 231.93 518.14 245.63"/><line class="cls-3" x1="511.03" y1="181.87" x2="540.26" y2="212.43"/><rect class="cls-2" x="525.52" y="176" width="0.25" height="42.29" transform="translate(9.53 418.04) rotate(-43.73)"/><line class="cls-3" x1="505.81" y1="184.72" x2="538.24" y2="218.42"/><polygon class="cls-2" points="538.15 218.51 505.72 184.8 505.9 184.63 538.33 218.34 538.15 218.51"/><line class="cls-3" x1="502.89" y1="188.12" x2="536.46" y2="222.89"/><polygon class="cls-2" points="536.38 222.98 502.81 188.21 502.99 188.03 536.55 222.81 536.38 222.98"/><line class="cls-3" x1="532.04" y1="232.5" x2="500.45" y2="200.25"/><rect class="cls-2" x="516.12" y="193.8" width="0.25" height="45.14" transform="translate(-3.97 423.02) rotate(-44.4)"/><line class="cls-3" x1="534.79" y1="226.71" x2="500.97" y2="193.14"/><polygon class="cls-2" points="534.71 226.8 500.88 193.23 501.06 193.05 534.88 226.62 534.71 226.8"/><line class="cls-3" x1="529.58" y1="237.28" x2="501.81" y2="208.59"/><rect class="cls-2" x="515.57" y="202.97" width="0.25" height="39.92" transform="translate(-9.88 421.47) rotate(-44.07)"/><line class="cls-3" x1="527.23" y1="241.59" x2="505.16" y2="219.21"/><polygon class="cls-2" points="527.14 241.68 505.07 219.3 505.25 219.12 527.32 241.51 527.14 241.68"/><line class="cls-3" x1="524.99" y1="245.54" x2="511.03" y2="231.84"/><polygon class="cls-2" points="524.9 245.63 510.94 231.93 511.12 231.75 525.08 245.45 524.9 245.63"/><rect class="cls-3" x="519.44" y="181.57" width="4"/><rect class="cls-2" x="519.44" y="180.07" width="4" height="3"/><polygon class="cls-2" points="518.94 250.07 521.36 254.64 523.94 250.07 518.94 250.07"/><path class="cls-2" d="M1078.57,922.2l-3.47,10.49h-4.45L1082,899.33h5.2l11.38,33.36H1094l-3.56-10.49Zm10.93-3.37-3.26-9.6c-.74-2.18-1.24-4.16-1.73-6.09h-.1c-.5,2-1,4-1.69,6l-3.26,9.65Z"/><path class="cls-2" d="M1126,931.61a21.44,21.44,0,0,1-8.81,1.58c-9.41,0-16.49-5.94-16.49-16.88,0-10.44,7.08-17.52,17.43-17.52a18,18,0,0,1,7.92,1.48l-1,3.52a15.58,15.58,0,0,0-6.73-1.39c-7.83,0-13,5-13,13.76,0,8.17,4.7,13.42,12.82,13.42a17.3,17.3,0,0,0,7-1.39Z"/><path class="cls-2" d="M1153.71,931.61a21.44,21.44,0,0,1-8.81,1.58c-9.41,0-16.48-5.94-16.48-16.88,0-10.44,7.07-17.52,17.42-17.52a18,18,0,0,1,7.92,1.48l-1,3.52a15.55,15.55,0,0,0-6.73-1.39c-7.82,0-13,5-13,13.76,0,8.17,4.7,13.42,12.82,13.42a17.27,17.27,0,0,0,7-1.39Z"/><path class="cls-2" d="M1176.38,917.05h-13v12h14.46v3.61h-18.76V899.33h18V903h-13.71v10.54h13Z"/><path class="cls-2" d="M1182.87,927.45a15.33,15.33,0,0,0,7.72,2.17c4.4,0,7-2.32,7-5.69,0-3.12-1.78-4.9-6.29-6.63-5.44-1.93-8.81-4.75-8.81-9.45,0-5.2,4.31-9.06,10.79-9.06a15.2,15.2,0,0,1,7.38,1.63l-1.19,3.51a13.36,13.36,0,0,0-6.34-1.58c-4.55,0-6.28,2.72-6.28,5,0,3.12,2,4.65,6.63,6.44,5.64,2.17,8.51,4.9,8.51,9.8,0,5.14-3.81,9.6-11.68,9.6a17.19,17.19,0,0,1-8.51-2.13Z"/><path class="cls-2" d="M1218.36,899.78a41.31,41.31,0,0,1,7.87-.7c4.31,0,7.08.75,9.16,2.43a7,7,0,0,1,2.77,5.89c0,3.22-2.13,6-5.64,7.33v.1c3.16.79,6.88,3.41,6.88,8.36a9,9,0,0,1-2.83,6.68c-2.32,2.13-6.08,3.12-11.53,3.12a49.74,49.74,0,0,1-6.68-.4Zm4.31,13.66h3.91c4.55,0,7.22-2.38,7.22-5.59,0-3.92-3-5.45-7.32-5.45a18.25,18.25,0,0,0-3.81.3Zm0,16a22.9,22.9,0,0,0,3.61.19c4.45,0,8.56-1.63,8.56-6.48,0-4.55-3.91-6.43-8.61-6.43h-3.56Z"/><path class="cls-2" d="M1250.58,922.2l-3.46,10.49h-4.46L1254,899.33h5.2l11.38,33.36H1266l-3.57-10.49Zm10.94-3.37-3.26-9.6c-.75-2.18-1.24-4.16-1.74-6.09h-.1c-.49,2-1,4-1.68,6l-3.26,9.65Z"/><path class="cls-2" d="M1275.48,899.78a44.48,44.48,0,0,1,8.27-.7c4.6,0,7.57.85,9.65,2.73a8.27,8.27,0,0,1,2.63,6.33,8.77,8.77,0,0,1-6.29,8.52v.14c2.57.9,4.11,3.27,4.9,6.74,1.09,4.65,1.88,7.87,2.57,9.15h-4.45c-.54-.94-1.29-3.81-2.23-8-1-4.6-2.77-6.33-6.68-6.48h-4.06v14.45h-4.31Zm4.31,15.19h4.41c4.6,0,7.52-2.52,7.52-6.33,0-4.31-3.12-6.19-7.67-6.24a17.55,17.55,0,0,0-4.26.4Z"/><path class="cls-2" d="M1301.52,927.45a15.33,15.33,0,0,0,7.72,2.17c4.41,0,7-2.32,7-5.69,0-3.12-1.78-4.9-6.28-6.63-5.45-1.93-8.81-4.75-8.81-9.45,0-5.2,4.3-9.06,10.79-9.06a15.16,15.16,0,0,1,7.37,1.63l-1.19,3.51a13.28,13.28,0,0,0-6.33-1.58c-4.56,0-6.29,2.72-6.29,5,0,3.12,2,4.65,6.64,6.44,5.64,2.17,8.51,4.9,8.51,9.8,0,5.14-3.81,9.6-11.68,9.6a17.26,17.26,0,0,1-8.52-2.13Z"/><path class="cls-4" d="M1192.07,874.57c-87.81,0-159.25-71.44-159.25-159.25s71.44-159.24,159.25-159.24,159.24,71.43,159.24,159.24S1279.88,874.57,1192.07,874.57Zm0-313.49c-85.06,0-154.25,69.19-154.25,154.24S1107,869.57,1192.07,869.57s154.24-69.19,154.24-154.25S1277.12,561.08,1192.07,561.08Z"/><path class="cls-4" d="M1224.42,819.9l-.54-2.95a124.32,124.32,0,0,0,57.2-26.41c38.54-32.11,44.3-78.61,45.11-94.45h-15.32c-6.22,3.5-11.17.83-11.89.4l-5.42-2.7a3.42,3.42,0,0,0-3.12.53c-3.94,2.91-5,13.74-5.1,17.67l-.06,3.21-2.42-2.12c-3.37-2.94-4.1-15.12-4.25-18.71-2.21-2.46-4.32-3.61-6.29-3.43-3,.27-4.92,3.55-4.94,3.59l-.47.81-11-.84-.32-.94c-3-8.8-6.93-13.89-11.35-14.72a7.76,7.76,0,0,0-6.3,1.76l-.16.2c-1.13,1.19-27.72,29.05-37.8,31.94-2.51.71-7.28,1.51-11.11-1.16a10.19,10.19,0,0,1-3.25-3.81l2.67-1.36a7.3,7.3,0,0,0,2.3,2.71c2.81,2,6.57,1.3,8.56.73,7.7-2.2,28.81-23.09,36.39-31.05a10.35,10.35,0,0,1,8.46-3c5.8.62,10.54,6,14.1,15.89l7.26.56c1-1.36,3.3-3.94,6.7-4.27,3.11-.29,6.2,1.34,9.21,4.85l.34.4,0,.53a78.75,78.75,0,0,0,1.29,11.87c.68-4.85,2.24-11.08,5.78-13.69a6.47,6.47,0,0,1,5.85-1l.26.1,5.74,2.88c.16.09,4.07,2.44,9.19-.62l.36-.21h19.25l0,1.55c-.53,14.43-5.41,64.17-46.26,98.2A127.25,127.25,0,0,1,1224.42,819.9Zm13.52-139.36h0Z"/><path class="cls-4" d="M1214.16,746.32l-2.66-1.39c.06-.1,5.21-10.32-.06-23.72l2.79-1.1C1220,734.84,1214.4,745.86,1214.16,746.32Z"/><path class="cls-4" d="M1201.57,764.54,1187.26,740l.53-21.3h.47v-1h6.67l-1.34,20.83Zm-12.3-25.06,5.3,9.09-3-9.77,1.23-19.07h-3Z"/><g class="cls-5"><path class="cls-3" d="M1057.55,690.35c12.71,1.83,26.55,3.28,41.41,4.08,12.26.65,23.87.79,34.72.56l51.83,5.09"/><path class="cls-4" d="M1185.37,701.58l-51.75-5.09c-11.54.24-23.23,0-34.74-.56-13.84-.74-27.81-2.12-41.55-4.09l.43-3c13.64,2,27.53,3.33,41.28,4.06,11.47.61,23.11.8,34.61.56h.09l51.92,5.1Z"/></g><g class="cls-5"><path class="cls-3" d="M1059.57,666l79,15.14s30.83,21,46.94,18.91a12.24,12.24,0,0,1-4.9,14.48,77.14,77.14,0,0,1-46.24-1.17,198.54,198.54,0,0,0,14.91,13.8c4.52,3.76,8.92,7.09,13.11,10,0,0,68.66,44.84,65.86,64.46a2.81,2.81,0,0,1-1,1.67c-3.9,2.9-17.24-9-21.86-13A266.35,266.35,0,0,0,1154,755.43s76.21,50.13,70.16,63a5.48,5.48,0,0,1-2.34,2.34c-5.2,2.68-12.83-4.85-28.07-16.38,0,0-9.93-7.51-23.4-16.38-13.77-9.06-21.91-13-22-13s45,36.75,61.73,48.06c1.82,1.23,7.22,4.82,7,9.35a6.49,6.49,0,0,1-2.34,4.68c-5.41,4-20.22-7.82-35.09-18.71-23.1-16.92-44.83-30-45.33-29.37-.28.37,5.43,5.71,12.58,10.65,8.88,6.14,11.4,7.31,21,14,10.38,7.24,20.19,14.2,18.72,18.71a4.45,4.45,0,0,1-2.34,2.34c-4.9,2.66-11.81-1.32-21.06-7-12.08-7.44-20-12.8-25.73-16.38a225,225,0,0,0-21.06-11.7L1044,752.92"/><path class="cls-4" d="M1212.11,838.93c-6.33,0-16.81-7.74-28.63-16.47l-4.37-3.23c-16.68-12.21-31.85-21.91-39.56-26.44,2.14,1.81,4.92,4,8,6.1,4.18,2.89,7,4.7,9.72,6.45,3.06,2,6.23,4,11.34,7.59,12.59,8.78,20.71,14.9,19.1,19.85a5.36,5.36,0,0,1-2.82,2.9c-5.25,2.85-12.14-.94-22-7-7.89-4.86-14-8.82-18.91-12-2.6-1.68-4.85-3.14-6.84-4.38a224.14,224.14,0,0,0-21-11.65l-.1-.06-72.52-46.79,1.08-1.68L1117,798.84a228.39,228.39,0,0,1,21.1,11.72c2,1.25,4.25,2.71,6.86,4.41,4.9,3.17,11,7.12,18.87,12,9.31,5.74,15.74,9.32,20.05,7a3.55,3.55,0,0,0,1.87-1.77c1.27-3.9-9.6-11.48-18.34-17.58-5.08-3.55-8.24-5.58-11.28-7.54-2.74-1.77-5.57-3.59-9.77-6.49-5.7-3.94-12.77-9.84-13-11.27l-.07-.41.26-.4c.6-.82,1-1.37,15.53,7.84,5.78,3.66,17.51,11.3,31.19,21.32l4.38,3.23c12.41,9.17,25.24,18.65,29.53,15.49a5.58,5.58,0,0,0,1.93-3.92c.17-3.91-4.85-7.31-6.5-8.43-9.49-6.44-27.44-20.48-37.31-28.29-8.17-6.46-14.36-11.46-17.32-13.86-8-6.47-8-6.47-7.48-7.3l.22-.37.42-.1h.06c1.37,0,12.62,6.51,22.67,13.12,13.34,8.78,23.35,16.34,23.45,16.41,2.88,2.19,5.53,4.25,7.87,6.08,9.66,7.54,15.49,12.09,19.14,10.21a4.47,4.47,0,0,0,1.89-1.88c1.27-2.69-1.14-10.73-31.52-34.33-17-13.24-34.82-25.11-38.21-27.36l-.36-.24-.15-.47-.09-.51.37-.37c.59-.58.59-.58,5.53,2.1,2.54,1.37,6.61,3.66,11.58,6.72a279.83,279.83,0,0,1,35.7,26.06l.74.64c11.15,9.67,17.83,13.81,19.86,12.3a1.8,1.8,0,0,0,.58-1.09c1.08-7.58-9.81-20.94-31.52-38.58-16.58-13.47-33.73-24.71-33.9-24.82-4.54-3.18-9-6.57-13.21-10.09a202.73,202.73,0,0,1-15-13.87l-2.92-3,4,1.35a76.35,76.35,0,0,0,45.48,1.2,11.24,11.24,0,0,0,4.64-12.49c-16,1.32-43.91-17.21-46.63-19L1059.38,667l.38-2L1139,680.23l.17.11c.3.21,30.69,20.76,46.24,18.75l.77-.1.29.72a13.33,13.33,0,0,1-5.26,15.67l-.14.1-.16,0a78.4,78.4,0,0,1-43,0c3.85,3.77,7.87,7.42,12,10.86s8.57,6.84,13,10c2.8,1.83,69.13,45.4,66.27,65.42a3.74,3.74,0,0,1-1.36,2.33c-3.82,2.85-13-4.27-22.36-12.39l-.74-.64a274.09,274.09,0,0,0-28.26-21.29c5.21,3.75,10.86,7.94,16.43,12.27,36.17,28.11,33.11,34.62,32.1,36.76a6.49,6.49,0,0,1-2.78,2.81c-4.79,2.46-10.65-2.11-21.29-10.41-2.33-1.83-5-3.89-7.85-6.06-.1-.08-10.05-7.6-23.34-16.34-5.1-3.36-9.41-6-12.81-8,13.63,11,41.35,33.07,53.69,41.44,2.16,1.46,7.68,5.2,7.46,10.23a7.56,7.56,0,0,1-2.75,5.44A5.37,5.37,0,0,1,1212.11,838.93Z"/></g><path class="cls-3" d="M1166.86,698.77s10.43,11.64,18.65,1.31"/><path class="cls-4" d="M1177.68,705.86c-6.41,0-11.71-5.84-11.93-6.09l2.23-2c0,.05,4.81,5.27,9.92,5.08,2.37-.07,4.54-1.31,6.44-3.7l2.35,1.87c-2.48,3.11-5.41,4.74-8.71,4.83Z"/></svg>