<svg xmlns="http://www.w3.org/2000/svg" width="103.725" height="103.725" viewBox="0 0 103.725 103.725">
  <g id="Instagram" transform="translate(0.5 0.5)">
    <path id="Path_3" data-name="Path 3" d="M51.363,9.131c13.7,0,15.409,0,20.545.571a26.47,26.47,0,0,1,9.7,1.712,20.043,20.043,0,0,1,9.7,9.7,26.47,26.47,0,0,1,1.712,9.7c0,5.136.571,6.848.571,20.545s0,15.409-.571,20.545a26.47,26.47,0,0,1-1.712,9.7,20.042,20.042,0,0,1-9.7,9.7,26.47,26.47,0,0,1-9.7,1.712c-5.136,0-6.848.571-20.545.571s-15.409,0-20.545-.571a26.47,26.47,0,0,1-9.7-1.712,20.042,20.042,0,0,1-9.7-9.7,26.47,26.47,0,0,1-1.712-9.7c0-5.136-.571-6.848-.571-20.545s0-15.409.571-20.545a26.47,26.47,0,0,1,1.712-9.7,20.5,20.5,0,0,1,3.995-5.707,9.649,9.649,0,0,1,5.707-3.995,26.47,26.47,0,0,1,9.7-1.712c5.136-.571,6.848-.571,20.545-.571m0-9.131c-13.7,0-15.979,0-21.116.571A35.233,35.233,0,0,0,17.692,2.853,22.341,22.341,0,0,0,8.56,8.56a22.341,22.341,0,0,0-5.707,9.131C1.141,21.116.571,24.54.571,30.247,0,35.383,0,37.666,0,51.363S0,67.342.571,72.478A35.233,35.233,0,0,0,2.853,85.034,22.341,22.341,0,0,0,8.56,94.165a22.341,22.341,0,0,0,9.131,5.707,35.233,35.233,0,0,0,12.555,2.283c5.136.571,7.419.571,21.116.571s15.979,0,21.116-.571a35.233,35.233,0,0,0,12.555-2.283A23.944,23.944,0,0,0,99.872,85.034a35.233,35.233,0,0,0,2.283-12.555c0-5.707.571-7.419.571-21.116s0-15.979-.571-21.116a35.233,35.233,0,0,0-2.283-12.555A22.341,22.341,0,0,0,94.165,8.56a22.341,22.341,0,0,0-9.131-5.707A35.233,35.233,0,0,0,72.478.571C67.342,0,65.059,0,51.363,0m0,25.111A25.829,25.829,0,0,0,25.111,51.363,26.252,26.252,0,1,0,51.363,25.111m0,43.373A16.815,16.815,0,0,1,34.242,51.363,16.815,16.815,0,0,1,51.363,34.242,16.815,16.815,0,0,1,68.483,51.363,16.815,16.815,0,0,1,51.363,68.483M78.756,17.692a6.278,6.278,0,1,0,6.278,6.278,6.333,6.333,0,0,0-6.278-6.278" fill="#050505" stroke="#070606" stroke-width="1" fill-rule="evenodd"/>
  </g>
</svg>
